<svg xmlns="http://www.w3.org/2000/svg" width="500" height="106.777" viewBox="0 0 500 106.777">
  <g id="Group_3242" data-name="Group 3242" transform="translate(0)">
    <path id="Path_2157" data-name="Path 2157" d="M394.1,72.7c-27.915,28.782-76.445,12.582-72.748-30.5,2.8-32.67,48.352-45.61,68.9-20.915.531.637,2.968,3.568,2.567,4.1l-13.085,6.964C368.32,16.136,343.52,21.27,338.5,40.218,331.86,65.3,357.258,82,378.154,67.305V57.78H357.739V43.81H394.1Z" fill="#fff"/>
    <path id="Path_2158" data-name="Path 2158" d="M420.9,85.721,451.172,9.475l19.4.129L500,85.721H482.138l-4.394-12.959-34.434-.291-4.552,13.25Zm26.793-27.306h25.518L460.76,24.12Z" fill="#fff"/>
    <path id="Path_2159" data-name="Path 2159" d="M214.84,85.721h-16.9l-5.844-13.233-31.83-.138-1.881.667-5.1,12.7H136.374l29.32-75.91c.757-.509,16.209-.56,18.242-.328.913.105,1.684.061,2.143,1.042ZM188.047,58.415,175.3,24.126,163.167,58.415Z" fill="#fff"/>
    <path id="Path_2160" data-name="Path 2160" d="M261.41,9.519V71.751h31.9v13.97H245.461V9.519Z" fill="#fff"/>
    <path id="Path_2161" data-name="Path 2161" d="M108.3,52.071l-6.877,2.988c-23.361,6.5-46.656-1.114-70.656.154C20.643,55.748,10.551,58.2.491,59.054A54.945,54.945,0,0,1,.5,44.448C7.632,43.261,14.7,43.4,21.891,43.2c1.7-.049,3.224-.681,5.045-.691,27.553-.15,53.545,12.123,81.366,9.561" fill="#fff"/>
    <path id="Path_2162" data-name="Path 2162" d="M2.4,68.579a169.145,169.145,0,0,1,52.658-5.745c10.193.465,20.281,2.713,30.587,1.923,7.953-.61,15.16-4.028,22.648-6.342.263,1.2-.6,1.539-1.322,2.17-7.968,6.95-20.963,12.339-31.532,13.063C58.983,74.777,45,72.89,28.289,76.876c-4.437,1.058-14.707,5.538-17.984,5.668-1.976.078-2.621-1.827-3.538-3.387C6.088,78,1.991,68.975,2.4,68.579" fill="#fff"/>
    <path id="Path_2163" data-name="Path 2163" d="M108.216,44.529l-.265,1.83c-8.877-.723-17.7-1.16-26.446-2.861C54.793,38.3,39.276,32.1,10.354,32.987c-1.776.054-6.005,1.893-6.038-.894C4.3,30.53,10.29,20.261,11.776,19.8,25.124,20.465,38.8,23.5,51.8,26.71a502.954,502.954,0,0,1,56.416,17.819" fill="#fff"/>
    <path id="Path_2164" data-name="Path 2164" d="M16.443,90.175c9.717-3.754,19.937-8.1,30.377-9.458,12.751-1.656,24.394,1.227,37.648-1.9,8.4-1.98,15.066-7.317,21.917-12.151.145,1.312-.842,2.249-1.578,3.186-3.378,4.3-13.143,13.459-17.952,15.785C75.682,91.046,62.205,90,50.23,92.367c-7.64,1.507-14.351,4.481-21.354,7.7-1.631-.053-10.766-6.793-11.807-8.3-.37-.537-.885-.634-.626-1.589" fill="#fff"/>
    <path id="Path_2165" data-name="Path 2165" d="M106.388,38.091c-13.7-4.99-26.808-11.482-40.5-16.518-13.211-4.862-28.17-7.867-40.806-12.722-.665-.256-1.538-.268-1.626-1.229C28.01,5.932,37.012-.51,41.634.577,48.6,2.216,63.731,10.592,70.68,14.268,81.146,19.8,94.754,27.194,103.786,34.655c.529.436,3.363,2.754,2.6,3.436" fill="#fff"/>
    <path id="Path_2166" data-name="Path 2166" d="M100.008,81.279c1.167,1.145-9.266,11.617-10.542,12.678A56.556,56.556,0,0,1,41.32,105.4c-.324-1.492.217-1.019.825-1.416,12.41-8.122,34.461-3.463,49.519-15.459,1.071-.853,7.552-8.022,8.344-7.246" fill="#fff"/>
    <path id="Path_2167" data-name="Path 2167" d="M101.281,26.029,78.146,8.106,63.014,0C74.649,1.959,86.178,6.782,93.96,15.86Z" fill="#fff"/>
  </g>
</svg>
