<svg xmlns="http://www.w3.org/2000/svg" width="580" height="284.254" viewBox="0 0 580 284.254">
  <g id="buildingandplumbing" transform="translate(-45.85 -45.3)">
    <g id="House_building_pipe" transform="translate(45.85 47.615)">
      <g id="Group_3" data-name="Group 3">
        <path id="Path_39" data-name="Path 39" d="M123.6,169.41v26.343l-3.391,2.755-4.479,3.634-2.384,1.933-1.25,1.007-8.148,6.586-.833.683-.069.046-7.222,5.868-2.963,2.384v83.9H72.38v-93.66l7.165-5.81,3.09-2.512.521-.428,4.514-3.634,5.185-4.2,2.94-2.384h.023l7.292-5.915.833-.683,4.5-3.658,3.646-2.928,1.25-1.03,6.864-5.567.88-.706Z" transform="translate(-41.673 -22.66)" fill="#fff"/>
        <path id="Path_40" data-name="Path 40" d="M148.249,47.3V160.142l-7.57-6.266-2.662-2.171h-.023v-.024l-5.463-4.5-4.757,3.942-.729.578-2.639,2.171-6.887,5.7-1.25,1.05-1.84,1.511-6.285,5.192-.857.684-5.533,4.579L100,174.044,97.032,176.5,91.87,180.77l-2.732,2.242-2.326,1.924-3.09,2.561-7.165,5.9v.071h-.081l-.868.72-8.148,6.727-1.134.944L63.848,203.9l-4.537,3.729L56.07,210.32l-4.861,4.036h-.023l-5.336,4.39V329.193H66.325V228.718l1.134-.944,3.634-3,4.514-3.706.949-.814,7.165-5.9,3.09-2.561,5.058-4.166,4.514-3.729.648-.543L100,200.915l7.292-6.007.857-.72.88-.72,7.246-5.971,1.25-1.05,4.155-3.434,2.732-2.242,3.368-2.785,4.757-3.942,5.463,4.532,2.662,2.2,2.732,2.242,4.861,4.024.556.46,7.246,5.971.868.72,1.563,1.275,6.586,5.452,3.611,2.986h.058v.024l4.456,3.706,5.764,4.756,2.361,1.971h.023l7.871,6.491.278.224,4.479,3.706,3.646,3,1.829,1.511v99.908h20.475V219.313l-6.019-4.956h-.023l-4.213-3.5-3.912-3.222-4.5-3.729-1.806-1.487-1.829-1.5-8.125-6.727-.278-.236-.6-.484-7.269-6.007-2.384-1.959-3.009-2.49-2.732-2.266-4.479-3.682V68.188h30.707v-.106l.116.106h61.321V172.545l.081.047h-.081v156.6h20.475V47.3Z" transform="translate(-45.85 -47.3)" fill="#fff"/>
      </g>
    </g>
    <g id="Building_and_Plumbing_Commission_text" transform="translate(318.897 180.672)">
      <g id="Group_4" data-name="Group 4">
        <path id="Path_41" data-name="Path 41" d="M454.785,224.258a10.836,10.836,0,0,0-8.009,3.056v-2.292H440.05v25.429h6.725V239.189c0-6.215,2.5-8.773,6.32-8.773,3.114,0,5.151,2.4,5.151,5.972v14.063h6.725v-15.5C464.97,228.633,460.9,224.258,454.785,224.258Zm9.086-55.106H457.4v1.574a12.523,12.523,0,1,0-8,22.315c3.519,0,6.111-.81,8-2.338v.405c0,4.433-3.206,7.084-7.743,7.084a9.3,9.3,0,0,1-6.366-2.5l-4.178,4.989c2.4,2.3,6.111,3.576,10.648,3.576,8.3,0,14.167-4.34,14.167-12.13l-.058-22.975h0Zm-13.3,18.137c-4.016,0-7.026-2.651-7.026-6.632s3.009-6.621,7.026-6.621a6.629,6.629,0,1,1,0,13.253ZM427.11,225.022v25.429h6.725V225.022Zm-4.653-56.634a10.79,10.79,0,0,0-8,3.056v-2.292h-6.736v25.417h6.736V183.307c0-6.215,2.488-8.762,6.308-8.762,3.113,0,5.151,2.4,5.151,5.961v14.063h6.725V179.083c0-6.32-4.074-10.695-10.185-10.695h0Zm-12,55.87a12.761,12.761,0,0,0-8.4,2.8v-13.3h-6.725v36.691h6.725V248.46a12.991,12.991,0,0,0,8.4,2.755c6.47,0,12.489-5.452,12.489-13.461s-6.019-13.5-12.489-13.5h0Zm-1.169,21.089a7.626,7.626,0,0,1,0-15.232c4.074,0,7.13,2.951,7.13,7.639S413.36,245.346,409.286,245.346Zm-14.491-76.194v25.417h6.725V169.152Zm-12.94-11.262v13.3a12.771,12.771,0,0,0-8.415-2.8c-6.47,0-12.477,5.5-12.477,13.5s6.007,13.449,12.477,13.449a13.062,13.062,0,0,0,8.415-2.743v1.979h6.725V157.89h-6.725Zm-7.234,31.587c-4.086,0-7.141-2.905-7.141-7.593s3.056-7.639,7.141-7.639a7.626,7.626,0,0,1,0,15.232ZM349.909,157.89v36.679h6.725V157.89Zm-12.94,11.262v25.417h6.725V169.152Zm-40.858,8v-.208c2.037-.359,4.989-2.7,4.989-7.026,0-5.706-3.912-9.479-10.081-9.479H274.2v34.133h16.864c7.593,0,11.007-3.924,11.007-9.479,0-4.838-3.16-7.593-5.961-7.94Zm-14.977-10.81h9.121a3.949,3.949,0,0,1,4.12,3.982,4.219,4.219,0,0,1-4.583,4.375h-8.658Zm9.167,22.327h-9.167v-8.461h9.422a4.091,4.091,0,0,1,4.433,4.225C294.988,187.023,293.414,188.666,290.3,188.666Zm-.174,27.64H274.235v34.144h6.922V239.281h8.97c7.847,0,12.639-4.583,12.639-11.5S297.975,216.306,290.127,216.306Zm0,16.713h-8.97v-10.44h8.97c3.715,0,5.764,2.13,5.764,5.2S293.843,233.019,290.127,233.019Zm8.889,61.726a9.424,9.424,0,0,1-8.866,5.2,11.344,11.344,0,0,1,0-22.674,9.655,9.655,0,0,1,8.357,4.225l6.158-3.206a16.869,16.869,0,0,0-14.514-7.547,17.836,17.836,0,1,0,0,35.672c6.621,0,12.373-3.16,15.232-8.97Zm25.776-125.594V180.4c0,6.215-2.5,8.773-6.32,8.773-3.1,0-5.139-2.4-5.139-5.961V169.152h-6.725v15.487c0,6.32,4.074,10.695,10.185,10.695a10.827,10.827,0,0,0,8-3.056v2.292h6.725V169.152h-6.725ZM306.829,213.76v36.691h6.736V213.76ZM322.4,279.606c-7.593,0-13.866,5.359-13.866,13.357s6.273,13.345,13.866,13.345,13.7-5.347,13.7-13.345S329.827,279.606,322.4,279.606Zm0,20.95a7.6,7.6,0,0,1,0-15.186,7.232,7.232,0,0,1,7.176,7.593A7.328,7.328,0,0,1,322.4,300.556Zm14.549-75.535v11.262c0,6.215-2.5,8.762-6.32,8.762-3.1,0-5.139-2.4-5.139-5.961V225.022h-6.736v15.487c0,6.32,4.086,10.706,10.2,10.706a10.834,10.834,0,0,0,8-3.067v2.3h6.725V225.022h-6.725Zm34.92,54.434a11.4,11.4,0,0,0-9.271,4.178,9.92,9.92,0,0,0-8.357-4.178,10.14,10.14,0,0,0-7.593,2.859V280.22H339.92v25.429h6.725V293.415c0-5.347,2.234-7.79,5.81-7.79,2.8,0,4.989,2.083,4.989,5.5v14.526h6.725V293.415c0-5.347,2.35-7.79,5.915-7.79,2.8,0,4.989,2.083,4.989,5.5v14.526h6.678v-15.9a9.862,9.862,0,0,0-9.885-10.29h0Zm8.334-55.2a11.368,11.368,0,0,0-9.271,4.178,9.891,9.891,0,0,0-8.357-4.178,10.134,10.134,0,0,0-7.593,2.847v-2.083h-6.725v25.429h6.725V238.216c0-5.347,2.245-7.8,5.81-7.8,2.8,0,4.989,2.095,4.989,5.509v14.526H372.5V238.216c0-5.347,2.35-7.8,5.914-7.8,2.8,0,4.989,2.095,4.989,5.509v14.526h6.678v-15.9a9.862,9.862,0,0,0-9.885-10.29h0Zm38.74,55.2a11.4,11.4,0,0,0-9.271,4.178,9.92,9.92,0,0,0-8.357-4.178,10.14,10.14,0,0,0-7.593,2.859V280.22h-6.725v25.429h6.725V293.415c0-5.347,2.234-7.79,5.81-7.79,2.8,0,4.989,2.083,4.989,5.5v14.526h6.725V293.415c0-5.347,2.338-7.79,5.915-7.79,2.8,0,4.989,2.083,4.989,5.5v14.526h6.678v-15.9a9.862,9.862,0,0,0-9.885-10.29h0Zm15.475.764v25.429h6.725V280.22Zm26.7,10.5-5.81-1.32c-1.991-.463-2.292-1.331-2.292-2.141,0-1.181.764-2.5,3.461-2.5,2.292,0,3.877.972,4.537,2.442l6.215-1.829c-1.482-3.565-5.3-5.915-10.544-5.915-6.424,0-10.394,3.519-10.394,8.415,0,3.658,2.593,6.215,7.176,7.234l4.942,1.065c2.2.463,2.813,1.377,2.813,2.292,0,1.424-1.482,2.546-3.982,2.546s-4.583-.764-5.139-2.951l-6.47,2.651c1.47,4.028,6.053,5.706,11,5.706,6.632,0,11.169-2.905,11.169-8.507,0-3.414-2.2-6.169-6.678-7.188h0Zm25.116,0-5.81-1.32c-1.991-.463-2.292-1.331-2.292-2.141,0-1.181.764-2.5,3.461-2.5,2.292,0,3.877.972,4.537,2.442l6.215-1.829c-1.482-3.565-5.3-5.915-10.544-5.915-6.424,0-10.394,3.519-10.394,8.415,0,3.658,2.593,6.215,7.176,7.234l4.942,1.065c2.2.463,2.813,1.377,2.813,2.292,0,1.424-1.482,2.546-3.982,2.546s-4.583-.764-5.139-2.951l-6.482,2.651c1.482,4.028,6.065,5.706,11.007,5.706,6.632,0,11.158-2.905,11.158-8.507,0-3.414-2.188-6.169-6.667-7.188h0Zm9.456-65.7h-6.47V226.6a12.526,12.526,0,1,0-8,22.327c3.519,0,6.111-.822,8-2.35v.405c0,4.433-3.206,7.084-7.743,7.084a9.3,9.3,0,0,1-6.366-2.5l-4.178,5c2.4,2.292,6.111,3.565,10.648,3.565,8.3,0,14.167-4.329,14.167-12.13l-.058-22.975Zm-13.3,18.137c-4.028,0-7.026-2.651-7.026-6.621s3-6.621,7.026-6.621a6.624,6.624,0,1,1,0,13.241Zm14.792,37.061v25.429h6.725V280.22Zm1.285-111.068v2.037a12.771,12.771,0,0,0-8.415-2.8c-6.47,0-12.477,5.5-12.477,13.5s6.007,13.449,12.477,13.449a13.062,13.062,0,0,0,8.415-2.743v1.979h6.725V169.152Zm-7.234,20.325c-4.086,0-7.141-2.905-7.141-7.593s3.056-7.639,7.141-7.639a7.626,7.626,0,0,1,0,15.232Zm31.471,90.13c-7.593,0-13.855,5.359-13.855,13.357s6.262,13.345,13.855,13.345,13.7-5.347,13.7-13.345S530.146,279.606,522.7,279.606Zm0,20.95a7.6,7.6,0,0,1,0-15.186,7.24,7.24,0,0,1,7.188,7.593A7.33,7.33,0,0,1,522.7,300.556Zm3.576-132.168a10.79,10.79,0,0,0-8,3.056v-2.292h-6.725v25.417h6.725V183.307c0-6.215,2.5-8.762,6.32-8.762,3.1,0,5.139,2.4,5.139,5.961v14.063h6.725V179.083c0-6.32-4.074-10.695-10.185-10.695h0Zm28.67,111.068a10.873,10.873,0,0,0-8,3.056V280.22h-6.725v25.429h6.725V294.387c0-6.215,2.5-8.762,6.32-8.762,3.114,0,5.151,2.4,5.151,5.961v14.063h6.725V290.162c0-6.32-4.086-10.706-10.2-10.706h0ZM561.79,157.89v13.3a12.771,12.771,0,0,0-8.415-2.8c-6.47,0-12.477,5.5-12.477,13.5s6.007,13.449,12.477,13.449a13.062,13.062,0,0,0,8.415-2.743v1.979h6.725V157.89H561.79Zm-7.234,31.587c-4.074,0-7.141-2.905-7.141-7.593s3.067-7.639,7.141-7.639a7.626,7.626,0,0,1,0,15.232Z" transform="translate(-272.21 -157.531)" fill="#fff"/>
        <path id="Path_42" data-name="Path 42" d="M413.578,209.878a4.077,4.077,0,0,1-8.148,0,3.949,3.949,0,0,1,4.074-4.028A4.011,4.011,0,0,1,413.578,209.878Z" transform="translate(-251.236 -149.98)" fill="#fff"/>
        <path id="Path_43" data-name="Path 43" d="M474.108,257.568a4.077,4.077,0,0,1-8.148,0,3.949,3.949,0,0,1,4.074-4.028A4.011,4.011,0,0,1,474.108,257.568Z" transform="translate(-241.706 -142.472)" fill="#fff"/>
        <path id="Path_44" data-name="Path 44" d="M419.888,257.568a4.077,4.077,0,0,1-8.148,0,3.949,3.949,0,0,1,4.074-4.028A4.011,4.011,0,0,1,419.888,257.568Z" transform="translate(-250.242 -142.472)" fill="#fff"/>
        <path id="Path_45" data-name="Path 45" d="M385.648,161.608a4.077,4.077,0,0,1-8.148,0,3.956,3.956,0,0,1,4.074-4.028A4.011,4.011,0,0,1,385.648,161.608Z" transform="translate(-255.633 -157.58)" fill="#fff"/>
        <path id="Path_46" data-name="Path 46" d="M335.7,161.608a4.083,4.083,0,0,1-8.16,0,3.956,3.956,0,0,1,4.074-4.028A4.021,4.021,0,0,1,335.7,161.608Z" transform="translate(-263.499 -157.58)" fill="#fff"/>
      </g>
    </g>
    <g id="BPC_Acroynm" transform="translate(320.818 45.3)">
      <g id="Group_5" data-name="Group 5">
        <path id="Path_47" data-name="Path 47" d="M343.617,99.342v-.637c7.13-.8,17.431-7.766,17.431-22.35,0-17.443-12.686-29.005-32.177-29.005h-55V153.557h55.175c23.137,0,35.024-12.211,35.024-29.816,0-16.007-10.625-23.612-20.452-24.4h0Zm-43.589-30.9H323.8c6.655-.012,11.887,4.271,11.887,10.926,0,7.141-5.07,11.887-12.836,11.9H300.028Zm24.41,64.03h-24.4v-23.3h24.873c7.454,0,12.523,4.433,12.523,11.412S332.842,132.468,324.439,132.468Z" transform="translate(-273.87 -44.977)" fill="#fff"/>
        <path id="Path_48" data-name="Path 48" d="M413.495,47.35h-52.3V153.557h26.17V121.067H412.4c24.572,0,40.105-14.746,40.105-37.1-.012-21.876-15.07-36.61-39.006-36.61h0Zm-3,51.83H387.348V69.7h23.137c10.151,0,16.331,6.019,16.331,14.584,0,9.028-6.181,14.9-16.32,14.9h0Z" transform="translate(-260.122 -44.977)" fill="#fff"/>
        <path id="Path_49" data-name="Path 49" d="M502.828,156.252c-31.135,0-55.7-24.248-55.708-55.465,0-31.066,24.549-55.476,55.684-55.488,19.711,0,37.385,9.19,46.622,24.873L526.277,81.748c-5.162-8.4-13.461-12.524-23.473-12.524-16.586,0-29.874,13.473-29.874,31.552s13.3,31.7,29.885,31.7c10.8,0,19.711-4.919,24.561-15.22l24.248,9.5c-8.137,18.7-26.274,29.492-48.809,29.492h0Z" transform="translate(-246.593 -45.3)" fill="#fff"/>
      </g>
      <path id="Path_50" data-name="Path 50" d="M496.8,275.663a7.338,7.338,0,0,1-7.188,7.593,7.456,7.456,0,0,1-7.338-7.593,7.365,7.365,0,0,1,7.338-7.593A7.24,7.24,0,0,1,496.8,275.663Z" transform="translate(-241.059 -4.812)" fill="none"/>
      <path id="Path_51" data-name="Path 51" d="M323.724,275.663a7.336,7.336,0,0,1-7.176,7.593,7.464,7.464,0,0,1-7.338-7.593,7.365,7.365,0,0,1,7.338-7.593A7.232,7.232,0,0,1,323.724,275.663Z" transform="translate(-268.306 -4.812)" fill="none"/>
      <path id="Path_52" data-name="Path 52" d="M294.654,219.017c0,3.16-2.049,5.243-5.764,5.243h-8.97V213.82h8.97C292.606,213.82,294.654,215.95,294.654,219.017Z" transform="translate(-272.918 -14.746)" fill="none"/>
      <path id="Path_53" data-name="Path 53" d="M398.734,227.969c0,4.688-3.056,7.593-7.13,7.593a7.626,7.626,0,0,1,0-15.232C395.678,220.33,398.734,223.281,398.734,227.969Z" transform="translate(-256.473 -13.488)" fill="none"/>
      <path id="Path_54" data-name="Path 54" d="M461.565,226.781a6.654,6.654,0,0,1-6.829,6.621c-4.028,0-7.026-2.651-7.026-6.621s3-6.621,7.026-6.621A6.647,6.647,0,0,1,461.565,226.781Z" transform="translate(-246.501 -13.552)" fill="none"/>
      <path id="Path_55" data-name="Path 55" d="M524.335,179.7a7.347,7.347,0,0,1-7.234,7.593c-4.074,0-7.141-2.905-7.141-7.593s3.067-7.639,7.141-7.639A7.389,7.389,0,0,1,524.335,179.7Z" transform="translate(-236.7 -22.261)" fill="none"/>
      <path id="Path_56" data-name="Path 56" d="M469.625,179.7a7.347,7.347,0,0,1-7.234,7.593c-4.086,0-7.141-2.905-7.141-7.593s3.056-7.639,7.141-7.639A7.389,7.389,0,0,1,469.625,179.7Z" transform="translate(-245.313 -22.261)" fill="none"/>
      <path id="Path_57" data-name="Path 57" d="M434.075,178.5a6.65,6.65,0,0,1-6.829,6.632c-4.016,0-7.026-2.651-7.026-6.632s3.009-6.621,7.026-6.621A6.647,6.647,0,0,1,434.075,178.5Z" transform="translate(-250.829 -22.317)" fill="none"/>
      <path id="Path_58" data-name="Path 58" d="M368.875,179.7a7.347,7.347,0,0,1-7.234,7.593c-4.086,0-7.141-2.905-7.141-7.593s3.056-7.639,7.141-7.639A7.389,7.389,0,0,1,368.875,179.7Z" transform="translate(-261.176 -22.261)" fill="none"/>
      <path id="Path_59" data-name="Path 59" d="M293.141,169.212a4.219,4.219,0,0,1-4.583,4.375H279.9V165.23h9.121A3.949,3.949,0,0,1,293.141,169.212Z" transform="translate(-272.921 -23.578)" fill="none"/>
      <path id="Path_60" data-name="Path 60" d="M293.755,181.435c0,2.546-1.574,4.236-4.688,4.236H279.9V177.21h9.422A4.091,4.091,0,0,1,293.755,181.435Z" transform="translate(-272.921 -21.407)" fill="none"/>
    </g>
  </g>
</svg>
