<svg xmlns="http://www.w3.org/2000/svg" width="580" height="160.717" viewBox="0 0 580 160.717">
  <g id="Group_2" data-name="Group 2" transform="translate(0)">
    <g id="Group_1" data-name="Group 1" transform="translate(0)">
      <path id="Path_21" data-name="Path 21" d="M50.843,9.674C64.5,8.219,76.871,20,72.219,33.795,67.43,48,47.344,50.876,37.949,39.5,28.4,27.928,36.472,11.2,50.843,9.674M62.82,28.056a9.332,9.332,0,1,0-9.331,9.326,9.329,9.329,0,0,0,9.331-9.326" transform="translate(5.053 1.428)" fill="#fff"/>
      <path id="Path_22" data-name="Path 22" d="M199.96,9.832V45.665h-9.653V29.127l-9.248,6.336-9.231-6.336V45.665h-9.653V9.832l18.942,13.463Z" transform="translate(21.902 1.47)" fill="#fff"/>
      <path id="Path_23" data-name="Path 23" d="M245.539,10.312a13.7,13.7,0,0,1,9.356,6.361c3.506,6.188,1.459,13.071-4.276,16.967l5.815,11.953H245.815l-4.689-9.648h-4.275v9.648H227.2V10.312ZM236.851,27.4h6.482c1.452,0,3.17-2.837,3.17-4.273s-1.718-4.273-3.17-4.273h-6.482Z" transform="translate(30.733 1.541)" fill="#fff"/>
      <path id="Path_24" data-name="Path 24" d="M92.365,25.819V10.382h9.653V45.94L81.608,30.229V45.664H71.955V9.832Z" transform="translate(10.755 1.47)" fill="#fff"/>
      <path id="Path_25" data-name="Path 25" d="M140.634,10.311V33.327c0,.109.574,1.84.685,2.073,1.572,3.268,7.078,3.422,9.088.528a12.742,12.742,0,0,0,.984-2.048V10.311h9.929V33.6c0,15.1-24.924,17.546-29.522,4.421a27.4,27.4,0,0,1-.817-3.043V10.311Z" transform="translate(17.714 1.541)" fill="#fff"/>
      <path id="Path_26" data-name="Path 26" d="M256.434,83.037H245.815l-4.689-9.648h-4.275v9.648H227.2V47.48h17.238a16.932,16.932,0,0,1,7.009,2.642,12.522,12.522,0,0,1,2.222,18.161c-.568.686-3.013,2.6-3.02,3.031ZM236.851,64.569h7.034c1.176,0,2.669-3.1,2.632-4.263-.04-1.255-1.582-4.006-2.908-4.006h-6.758Z" transform="translate(30.733 6.277)" fill="#fff"/>
      <path id="Path_27" data-name="Path 27" d="M278.829,57.491c-2.548-1.435-8.949-3.846-11.32-1.533-4.022,3.923,6.324,5.326,8.35,6.024,4.734,1.632,8.181,4.37,8.505,9.692.822,13.5-15.835,14-25.023,10.122-.724-.3-3.32-1.336-2.994-2.241.164-.457,4.347-6.5,4.737-6.613,3.137,1.515,6.813,3.217,10.418,2.717,3.131-.435,4.079-3.575,1.078-5.165C267.4,67.75,258.7,68.258,257.005,60.7c-3.132-13.94,15.558-16.593,24.771-11.251.433.252,1.484.746,1.483,1.277Z" transform="translate(34.681 6.189)" fill="#fff"/>
      <path id="Path_28" data-name="Path 28" d="M164.869,56.3v4.686h11.584v8.544H164.869V83.037h-9.653V47.479h25.513l.414.414v7.993l-.414.414Z" transform="translate(21.009 6.277)" fill="#fff"/>
      <path id="Path_29" data-name="Path 29" d="M155.431,47.48V56.3h-16v4.685H150.6l.414.414v7.718l-.414.414H139.434V83.038h-9.653V47.48Z" transform="translate(17.568 6.277)" fill="#fff"/>
      <rect id="Rectangle_2" data-name="Rectangle 2" width="9.653" height="35.558" transform="translate(242.781 53.757)" fill="#fff"/>
      <path id="Path_30" data-name="Path 30" d="M131.432,83.043H121.365l-2.251-4.09-12.261.118-1.761,3.971H94.749l16.675-35.576c1.109.222,3.277-.441,3.982.461ZM110.195,71.191h6.068c-1.032-2.255-1.629-4.937-2.631-7.168-.151-.333.024-.668-.538-.552Z" transform="translate(12.799 6.271)" fill="#fff"/>
      <path id="Path_31" data-name="Path 31" d="M215.653,83.047H205.31c-1.14-1.038-1.112-3.954-2.743-4.15-3.431-.414-7.749.3-11.28.06l-2.251,4.09H178.969L195,47.931c.515-.716,3.765-.606,4.251-.17a31.141,31.141,0,0,1,1.475,2.937c5.2,10.665,9.723,21.688,14.933,32.349M194.14,71.194h6.068c-.9-2.348-1.559-4.892-2.637-7.165-.152-.323.043-.675-.532-.555Z" transform="translate(24.175 6.268)" fill="#fff"/>
      <path id="Path_32" data-name="Path 32" d="M226.563,10.311v8.545H209.738v4.961h12.136v8.269H209.738v4.961h16.825v8.545H200.084V10.311Z" transform="translate(27.08 1.541)" fill="#fff"/>
      <path id="Path_33" data-name="Path 33" d="M35.546,37.99a13.962,13.962,0,0,1-4.765,5.019C16.36,53.006-4.112,40.584.723,23.168,4.074,11.1,18.341,6.178,29.113,12.029a18.889,18.889,0,0,1,6.159,5.428c.229.38.369.092.007.549-1.166,1.469-6.041,3.214-7.595,4.77-4.142-5.435-12.522-5.577-16,.591-5.907,10.469,8.873,19.579,16,9.982Z" transform="translate(0 1.43)" fill="#fff"/>
      <path id="Path_34" data-name="Path 34" d="M413.758,46.6c10.19-.954,20.883,5.688,22.116,16.32,2.1,18.128-19.841,27.787-33.223,16.666-13.417-11.149-5.6-31.423,11.107-32.987m11.709,18.8a9.523,9.523,0,1,0-9.523,9.517,9.52,9.52,0,0,0,9.523-9.517" transform="translate(53.433 6.135)" fill="#fff"/>
      <path id="Path_35" data-name="Path 35" d="M464.813,83.349H453.919l-4.965-9.923h-4.275v9.923H434.75V47.24h18.617a25.767,25.767,0,0,1,4,1.24A12.893,12.893,0,0,1,461.5,68.87c-.575.628-2.759,2.148-2.707,2.714ZM444.679,64.605h7.034c1.4,0,2.907-2.985,2.9-4.276-.01-1.339-1.792-4.269-3.174-4.269h-6.758Z" transform="translate(58.094 6.242)" fill="#fff"/>
      <rect id="Rectangle_3" data-name="Rectangle 3" width="9.653" height="36.109" transform="translate(527.871 53.482)" fill="#fff"/>
      <path id="Path_36" data-name="Path 36" d="M515.45,83.075v.276l-10.575.013c-.458-.109-1.21-4.077-2.25-4.147l-12.305.163-1.762,3.971H477.939l16.718-36.127,4.384.292ZM499.728,71.223a74.053,74.053,0,0,0-2.466-7.045c-.157-.324-.226-.737-.7-.676l-2.9,7.721Z" transform="translate(64.55 6.239)" fill="#fff"/>
      <path id="Path_37" data-name="Path 37" d="M417.091,0,391.442,53.664h22.616V62.38h-9.929V89.348H394.2V62.38h-6.758l-8.4,17.042-4.965-2.6c-5.78,8.7-19.664,2.49-17.026-7.687,2-7.721,12.706-9.662,17.026-2.944l8.254-4.64c.392-.563-2.187-3.172-2.743-3.667-8.454-7.55-22.8-6.555-29.629,2.615-10.272,13.787,1.753,31.37,18.146,29.635l6.789-1.74L340,160.717,305.94,89.348h6.62l16.272-35.685H317.8L308.971,73,299.6,53.8l-10.991-.177L263.19,0ZM341.52,53.664h-9.653V89.348h9.653Z" transform="translate(34.526)" fill="#fff"/>
      <path id="Path_38" data-name="Path 38" d="M102.188,42.941l5.1-7.389c2.369,1.92,10.437,4.182,12.562,1.75,1.975-2.263-.468-3.806-2.346-4.562-6.138-2.469-14.29-2.67-14.773-11.419-.721-13.091,18.543-14.228,26.514-8.29.362.3.1.489-.067.779-.4.721-4.162,6.172-4.543,6.237-2.535-1.429-7.2-2.939-10.049-2.062a2.6,2.6,0,0,0-1.5,3.456c.679,1.5,9.084,3.131,11.264,4.178a10.657,10.657,0,0,1-.462,19.58c-6.719,2.792-15.477,1.109-21.7-2.259" transform="translate(13.825 1.434)" fill="#fff"/>
    </g>
  </g>
</svg>
