<svg xmlns="http://www.w3.org/2000/svg" xmlns:xlink="http://www.w3.org/1999/xlink" width="442.494" height="570.143" viewBox="0 0 442.494 570.143">
  <defs>
    <clipPath id="clip-path">
      <rect id="Rectangle_1" data-name="Rectangle 1" width="442.494" height="570.143" fill="#fff"/>
    </clipPath>
  </defs>
  <g id="engineersaustralia" clip-path="url(#clip-path)">
    <path id="Path_1" data-name="Path 1" d="M180.3,0,10.117,100.1V293.423C95.432,199.16,180.3,208.089,180.3,208.089c106.619,0,171.315,85.334,171.315,85.334V98.493Zm-.352,33.17L41.506,113.14c1.018,6.4-3.681,7.441-3.681,7.441-10.633-7.833.47-12.709.47-12.709L174.618,28.314c10.2-5.874,5.385,4.8,5.385,4.8" transform="translate(41.385)" fill="#fff"/>
    <path id="Path_2" data-name="Path 2" d="M159,47.316S89.016,39.484,15.273,119.374l143.158,82.143,142.1-82.143C300.648,119.374,241.22,47.316,159,47.316ZM134.15,71.91C116.86,76.374,82.613,85.284,54.1,113.03c0,0-10.652,4.014-4.817-6.4,0,0,49.58-43.47,91.5-38.888,0,0,3.328,1.586-6.639,4.229" transform="translate(62.477 192.688)" fill="#fff"/>
    <path id="Path_3" data-name="Path 3" d="M0,138.439V88.9H35.853v5.835H6.521v15.215H34.012v5.835H6.521v16.938H36.989v5.835H0Z" transform="translate(0 363.645)" fill="#fff"/>
    <path id="Path_4" data-name="Path 4" d="M10.1,138.439V88.9h6.755l26.1,38.908V88.9h6.305v49.54H42.508l-26.1-39.005v39.005Z" transform="translate(41.321 363.645)" fill="#fff"/>
    <path id="Path_5" data-name="Path 5" d="M45.551,119.635V113.76H66.62v18.406a40.389,40.389,0,0,1-9.967,5.874A30.39,30.39,0,0,1,46.118,140a28.492,28.492,0,0,1-13.3-3.094,21.028,21.028,0,0,1-9.046-9.046A28.313,28.313,0,0,1,20.7,114.6a31.334,31.334,0,0,1,2.976-13.511,19.584,19.584,0,0,1,8.694-9.262,26.883,26.883,0,0,1,13.06-3.094,26.491,26.491,0,0,1,9.79,1.723,17.1,17.1,0,0,1,6.873,4.8,23.487,23.487,0,0,1,3.779,8.126L60,104.988a22.322,22.322,0,0,0-2.761-5.874,9.793,9.793,0,0,0-4.68-3.427,16.725,16.725,0,0,0-6.873-1.253A20.091,20.091,0,0,0,37.855,95.8a13.714,13.714,0,0,0-5.268,3.544,14.984,14.984,0,0,0-3.094,4.915,26.256,26.256,0,0,0-1.958,9.947,24.552,24.552,0,0,0,2.291,11.1,14.9,14.9,0,0,0,6.638,6.638,19.732,19.732,0,0,0,9.262,2.174,23.329,23.329,0,0,0,8.361-1.606,21.232,21.232,0,0,0,6.188-3.544v-9.34Z" transform="translate(84.671 362.958)" fill="#fff"/>
    <path id="Path_6" data-name="Path 6" d="M39.407,88.9h-6.52v49.54h6.52Z" transform="translate(134.525 363.645)" fill="#fff"/>
    <path id="Path_7" data-name="Path 7" d="M37.5,138.439V88.9h6.756l26.121,38.908V88.9h6.3v49.54H69.907l-26.1-39.005v39.005Z" transform="translate(153.396 363.645)" fill="#fff"/>
    <path id="Path_8" data-name="Path 8" d="M48.438,138.439V88.9H84.271v5.835H54.958v15.215H82.45v5.835H54.958v16.938H85.426v5.835H48.438Z" transform="translate(198.137 363.645)" fill="#fff"/>
    <path id="Path_9" data-name="Path 9" d="M58.6,138.439V88.9H94.454v5.835H65.141v15.215H92.614v5.835H65.141v16.938H95.59v5.835H58.6Z" transform="translate(239.714 363.645)" fill="#fff"/>
    <path id="Path_10" data-name="Path 10" d="M68.727,138.479V88.939H90.716a28.594,28.594,0,0,1,10.065,1.37,11.553,11.553,0,0,1,5.5,4.7,14,14,0,0,1,2.056,7.441,12.375,12.375,0,0,1-3.426,8.91,16.959,16.959,0,0,1-10.534,4.582,14.205,14.205,0,0,1,4.014,2.526,32.127,32.127,0,0,1,5.482,6.618l8.6,13.511h-8.244l-6.54-10.3c-1.958-2.976-3.544-5.267-4.68-6.873a18.523,18.523,0,0,0-3.329-3.309,11.212,11.212,0,0,0-2.976-1.37,24.608,24.608,0,0,0-3.662-.235H75.365v21.97Zm6.638-27.688h14a21.534,21.534,0,0,0,6.991-.92,7.306,7.306,0,0,0,3.916-2.957,7.925,7.925,0,0,0,1.37-4.464,7.5,7.5,0,0,0-2.506-5.875,12.161,12.161,0,0,0-8.146-2.291H75.326Z" transform="translate(281.131 363.701)" fill="#fff"/>
    <path id="Path_11" data-name="Path 11" d="M79.164,123.252l6.168-.568a14.512,14.512,0,0,0,2.075,6.05,11.16,11.16,0,0,0,5.032,3.916,18.268,18.268,0,0,0,7.677,1.489A17.628,17.628,0,0,0,106.753,133a8.715,8.715,0,0,0,4.23-3.094,7.148,7.148,0,0,0,1.39-4.229,6.662,6.662,0,0,0-1.39-4.132,10.375,10.375,0,0,0-4.464-2.976,63.782,63.782,0,0,0-8.812-2.389,52.588,52.588,0,0,1-9.615-3.094,12.905,12.905,0,0,1-5.267-4.582A11.257,11.257,0,0,1,81.1,102.34a11.981,11.981,0,0,1,2.173-6.99,13.371,13.371,0,0,1,6.188-4.915,23.5,23.5,0,0,1,9.164-1.7,23.909,23.909,0,0,1,9.791,1.821,14.312,14.312,0,0,1,6.521,5.267,15.21,15.21,0,0,1,2.408,7.832l-6.305.451a10.259,10.259,0,0,0-3.427-7.089A13.376,13.376,0,0,0,98.9,94.624,13.706,13.706,0,0,0,90.208,96.8a6.521,6.521,0,0,0-2.741,5.248,5.541,5.541,0,0,0,1.958,4.347c1.253,1.156,4.581,2.291,9.79,3.544a66.131,66.131,0,0,1,10.985,3.212,15.314,15.314,0,0,1,6.423,5.032,12.317,12.317,0,0,1,2.056,7.089,13.535,13.535,0,0,1-2.291,7.441,15.527,15.527,0,0,1-6.521,5.482,23.5,23.5,0,0,1-9.614,1.958,29.787,29.787,0,0,1-11.338-1.958,15.663,15.663,0,0,1-7.108-5.874,17.976,17.976,0,0,1-2.624-8.929" transform="translate(323.826 362.926)" fill="#fff"/>
    <path id="Path_12" data-name="Path 12" d="M10.75,142.393,25.416,104.4H30.84l15.567,37.991H40.631l-4.464-11.556H20.247l-4.132,11.556Zm11-15.567h13L30.84,116.309c-1.253-3.212-2.056-5.874-2.741-7.834a43.351,43.351,0,0,1-2.076,7.208Z" transform="translate(43.974 427.063)" fill="#fff"/>
    <path id="Path_13" data-name="Path 13" d="M44.364,104.418H49.4v21.971a28.233,28.233,0,0,1-1.253,9.143,10.935,10.935,0,0,1-4.7,5.5,17.225,17.225,0,0,1-8.929,1.96,17.622,17.622,0,0,1-8.714-1.822,10,10,0,0,1-4.8-5.386,26.089,26.089,0,0,1-1.488-9.494V104.418h5.033v21.971a22.367,22.367,0,0,0,.92,7.32,7.091,7.091,0,0,0,3.192,3.665,11.53,11.53,0,0,0,5.5,1.252c3.662,0,6.305-.8,7.832-2.5s2.389-4.938,2.389-9.616V104.418Z" transform="translate(79.782 427.129)" fill="#fff"/>
    <path id="Path_14" data-name="Path 14" d="M27.648,130.608l4.68-.468a10.817,10.817,0,0,0,1.606,4.7,8.574,8.574,0,0,0,3.779,2.978,13.7,13.7,0,0,0,5.875,1.135,12.948,12.948,0,0,0,5.032-.8,7.417,7.417,0,0,0,3.329-2.388,5.622,5.622,0,0,0,1.018-3.212,4.835,4.835,0,0,0-1.018-3.1,8.436,8.436,0,0,0-3.446-2.27c-1.038-.351-3.329-1.038-6.756-1.838a29.939,29.939,0,0,1-7.324-2.408,9.4,9.4,0,0,1-3.916-3.548,8.3,8.3,0,0,1-1.37-4.678,10.118,10.118,0,0,1,1.606-5.386,9.439,9.439,0,0,1,4.8-3.777,20.347,20.347,0,0,1,6.991-1.252,19,19,0,0,1,7.441,1.369,10.809,10.809,0,0,1,6.755,9.967l-4.8.331a7.829,7.829,0,0,0-2.644-5.483,9.9,9.9,0,0,0-6.638-1.838,10.169,10.169,0,0,0-6.639,1.721,4.979,4.979,0,0,0-2.075,3.915,4.031,4.031,0,0,0,1.488,3.329,19.539,19.539,0,0,0,7.558,2.744,53.286,53.286,0,0,1,8.479,2.408,11.455,11.455,0,0,1,4.934,3.915A9.786,9.786,0,0,1,58,132.058a10.556,10.556,0,0,1-1.723,5.717,10.744,10.744,0,0,1-5.033,4.113,16.734,16.734,0,0,1-7.343,1.486,21.778,21.778,0,0,1-8.694-1.486,12.57,12.57,0,0,1-5.5-4.561,11.755,11.755,0,0,1-1.958-6.755" transform="translate(113.098 426.611)" fill="#fff"/>
    <path id="Path_15" data-name="Path 15" d="M47.817,142.393V108.866H35.344V104.4H65.459v4.464H52.869v33.526Z" transform="translate(144.576 427.063)" fill="#fff"/>
    <path id="Path_16" data-name="Path 16" d="M43.215,142.344V104.434H60.153a22.811,22.811,0,0,1,7.832,1.038,8.6,8.6,0,0,1,4.229,3.66,11.02,11.02,0,0,1,1.606,5.722,9.99,9.99,0,0,1-2.624,6.872,13.975,13.975,0,0,1-8.146,3.543,10.913,10.913,0,0,1,3,1.96,25.967,25.967,0,0,1,4.112,5.029l6.638,10.3H70.511l-5.052-7.829A60.2,60.2,0,0,0,61.8,129.46a10.824,10.824,0,0,0-2.506-2.525A8.591,8.591,0,0,0,57,125.916a13.941,13.941,0,0,0-2.761-.234H48.365V142.5Zm5.033-21.167h10.77a16.9,16.9,0,0,0,5.385-.687,5.874,5.874,0,0,0,2.976-2.291,6.005,6.005,0,0,0,1.019-3.426,5.882,5.882,0,0,0-1.958-4.464,9.137,9.137,0,0,0-6.188-1.705H48.228Z" transform="translate(176.773 427.113)" fill="#fff"/>
    <path id="Path_17" data-name="Path 17" d="M50.887,142.393,65.553,104.4h5.385L86.5,142.393H80.768L76.3,130.837H60.383l-4.112,11.556Zm10.887-15.567H74.717L70.7,116.232c-1.273-3.212-1.958-5.875-2.761-7.834a41.511,41.511,0,0,1-2.056,7.208Z" transform="translate(208.155 427.063)" fill="#fff"/>
    <path id="Path_18" data-name="Path 18" d="M59.57,142.393V104.4H64.6v33.526H83.381v4.464Z" transform="translate(243.676 427.063)" fill="#fff"/>
    <path id="Path_19" data-name="Path 19" d="M71.556,104.4H66.523v37.991h5.033Z" transform="translate(272.118 427.063)" fill="#fff"/>
    <path id="Path_20" data-name="Path 20" d="M69.4,142.393,84.065,104.4H89.45l15.665,37.991H99.4l-4.464-11.556H79.013l-4.132,11.556Zm11-15.567H93.346l-4.014-10.517c-1.253-3.212-1.958-5.874-2.741-7.834a43.346,43.346,0,0,1-2.075,7.208Z" transform="translate(283.879 427.063)" fill="#fff"/>
  </g>
</svg>
