<svg id="Group_3246" data-name="Group 3246" xmlns="http://www.w3.org/2000/svg" xmlns:xlink="http://www.w3.org/1999/xlink" width="554.446" height="218.064" viewBox="0 0 554.446 218.064">
  <defs>
    <clipPath id="clip-path">
      <rect id="Rectangle_1720" data-name="Rectangle 1720" width="554.446" height="218.064" fill="#fff"/>
    </clipPath>
  </defs>
  <path id="Path_2168" data-name="Path 2168" d="M208.413,42.538h12.646v2.09H210.712v9.023h10.208v2.056H210.712V66.716h10.347v2.09H208.413Z" transform="translate(41.898 8.552)" fill="#fff"/>
  <g id="Group_3245" data-name="Group 3245">
    <g id="Group_3244" data-name="Group 3244" clip-path="url(#clip-path)">
      <path id="Path_2169" data-name="Path 2169" d="M223.115,50.922h2.2v2.334h.07a5.685,5.685,0,0,1,4.982-2.682,4.983,4.983,0,0,1,5.365,5.329V67.192h-2.194V56.461c0-2.509-1.36-3.937-3.763-3.937a4.375,4.375,0,0,0-4.459,4.6V67.192h-2.2Z" transform="translate(44.854 10.167)" fill="#fff"/>
      <path id="Path_2170" data-name="Path 2170" d="M235.991,50.864h2.474L243.69,63.2h.07l5.435-12.333h2.37l-7.839,17h-.139Z" transform="translate(47.443 10.225)" fill="#fff"/>
      <path id="Path_2171" data-name="Path 2171" d="M251.766,46.2a1.585,1.585,0,1,1,1.569,1.6,1.491,1.491,0,0,1-1.569-1.6m2.718,22.262h-2.229V52.124h2.229Z" transform="translate(50.614 8.966)" fill="#fff"/>
      <path id="Path_2172" data-name="Path 2172" d="M259.1,50.922h2.2v2.159h.07a4.469,4.469,0,0,1,3.831-2.508,4.039,4.039,0,0,1,2.091.592l-.662,2.09h-.1a2.8,2.8,0,0,0-1.882-.627,3.609,3.609,0,0,0-3.344,3.833v10.73h-2.2Z" transform="translate(52.089 10.167)" fill="#fff"/>
      <path id="Path_2173" data-name="Path 2173" d="M267.426,58.935c0-4.879,3.728-8.362,8.745-8.362a8.031,8.031,0,0,1,8.43,8.291,8.372,8.372,0,0,1-8.639,8.675,8.194,8.194,0,0,1-8.536-8.6m14.946,0a6.044,6.044,0,0,0-6.305-6.34,6.143,6.143,0,0,0-6.41,6.478,6.193,6.193,0,0,0,6.375,6.481,6.3,6.3,0,0,0,6.34-6.619" transform="translate(53.762 10.167)" fill="#fff"/>
      <path id="Path_2174" data-name="Path 2174" d="M285.522,50.922h2.2v2.334h.07a5.685,5.685,0,0,1,4.982-2.682,4.983,4.983,0,0,1,5.365,5.329V67.192H295.94V56.461c0-2.509-1.36-3.937-3.763-3.937a4.375,4.375,0,0,0-4.459,4.6V67.192h-2.2Z" transform="translate(57.4 10.167)" fill="#fff"/>
      <path id="Path_2175" data-name="Path 2175" d="M300.573,50.922h2.2v2.3h.07a4.821,4.821,0,0,1,8.674.139,5.25,5.25,0,0,1,4.844-2.786c3.239,0,5.12,2.3,5.12,5.435V67.192h-2.229V56.531c0-2.786-1.325-4.007-3.484-4.007-2.473,0-3.727,1.533-3.727,3.9V67.192h-2.2V56.531c0-2.37-.871-4.007-3.275-4.007-2.473,0-3.8,1.952-3.8,4.494V67.192h-2.2Z" transform="translate(60.426 10.167)" fill="#fff"/>
      <path id="Path_2176" data-name="Path 2176" d="M329.709,67.54c-4.913,0-8.082-3.448-8.082-8.431s3.344-8.535,8.047-8.535c4.6,0,7.733,3.448,7.733,8.848H323.855c.106,3.834,2.58,6.167,5.889,6.167,2.4,0,4.076-1.22,5.5-3.519l1.707,1.081a8.148,8.148,0,0,1-7.246,4.389m5.365-9.964c-.419-3.206-2.509-5.085-5.5-5.085-3.03,0-5.122,1.95-5.609,5.085Z" transform="translate(64.658 10.167)" fill="#fff"/>
      <path id="Path_2177" data-name="Path 2177" d="M338.417,50.922h2.2v2.334h.07a5.685,5.685,0,0,1,4.982-2.682,4.983,4.983,0,0,1,5.365,5.329V67.192h-2.194V56.461c0-2.509-1.36-3.937-3.763-3.937a4.375,4.375,0,0,0-4.459,4.6V67.192h-2.2Z" transform="translate(68.034 10.167)" fill="#fff"/>
      <path id="Path_2178" data-name="Path 2178" d="M356.338,46.309V51.78h3.03v1.95h-3.03V68.049h-2.2V53.73h-1.776V51.78h1.776V46.309Z" transform="translate(70.838 9.31)" fill="#fff"/>
      <rect id="Rectangle_1717" data-name="Rectangle 1717" width="2.299" height="26.268" transform="translate(442.78 51.09)" fill="#fff"/>
      <path id="Path_2179" data-name="Path 2179" d="M375.8,50.922h2.2v2.334h.07a5.685,5.685,0,0,1,4.982-2.682A4.983,4.983,0,0,1,388.41,55.9V67.192h-2.194V56.461c0-2.509-1.36-3.937-3.763-3.937a4.375,4.375,0,0,0-4.459,4.6V67.192h-2.2Z" transform="translate(75.549 10.167)" fill="#fff"/>
      <path id="Path_2180" data-name="Path 2180" d="M389.631,63.638l1.673-1.08a4.108,4.108,0,0,0,4.145,3.03,3.05,3.05,0,0,0,3.345-3.1c0-1.567-.872-2.4-3.206-3.1-3.38-1.011-4.459-2.37-4.459-4.564,0-2.439,1.985-4.25,4.738-4.25a5.11,5.11,0,0,1,4.459,2.474L399,54.336a3.71,3.71,0,0,0-3.171-1.882,2.249,2.249,0,0,0-2.509,2.2c0,1.5.8,2.09,3.171,2.891,3.1,1.011,4.425,2.335,4.425,4.7a5.169,5.169,0,0,1-5.469,5.3,5.776,5.776,0,0,1-5.818-3.9" transform="translate(78.33 10.167)" fill="#fff"/>
      <path id="Path_2181" data-name="Path 2181" d="M405.637,46.309V51.78h3.03v1.95h-3.03V68.049h-2.2V53.73h-1.776V51.78h1.776V46.309Z" transform="translate(80.749 9.31)" fill="#fff"/>
      <path id="Path_2182" data-name="Path 2182" d="M410.77,46.2a1.585,1.585,0,1,1,1.569,1.6,1.491,1.491,0,0,1-1.569-1.6m2.718,22.262h-2.229V52.124h2.229Z" transform="translate(82.579 8.966)" fill="#fff"/>
      <path id="Path_2183" data-name="Path 2183" d="M421.47,46.309V51.78h3.03v1.95h-3.03V68.049h-2.2V53.73H417.5V51.78h1.776V46.309Z" transform="translate(83.932 9.31)" fill="#fff"/>
      <path id="Path_2184" data-name="Path 2184" d="M428.8,50.864V61.176c0,2.786,1.6,4.32,4.078,4.32,2.438,0,4.11-1.6,4.11-4.529v-10.1h2.2V61.106a6.062,6.062,0,0,1-6.41,6.375c-3.729,0-6.169-2.264-6.169-6.131V50.864Z" transform="translate(85.762 10.225)" fill="#fff"/>
      <path id="Path_2185" data-name="Path 2185" d="M444.641,46.309V51.78h3.03v1.95h-3.03V68.049h-2.2V53.73h-1.776V51.78h1.776V46.309Z" transform="translate(88.59 9.31)" fill="#fff"/>
      <path id="Path_2186" data-name="Path 2186" d="M456.582,67.54c-4.913,0-8.082-3.448-8.082-8.431s3.344-8.535,8.047-8.535c4.6,0,7.733,3.448,7.733,8.848H450.728c.106,3.834,2.58,6.167,5.889,6.167,2.4,0,4.076-1.22,5.5-3.519l1.707,1.081a8.148,8.148,0,0,1-7.246,4.389m5.365-9.964c-.419-3.206-2.509-5.085-5.5-5.085-3.03,0-5.122,1.95-5.609,5.085Z" transform="translate(90.164 10.167)" fill="#fff"/>
      <path id="Path_2187" data-name="Path 2187" d="M234.063,97.935c0-4.879,3.727-8.362,8.744-8.362a8.031,8.031,0,0,1,8.43,8.291,8.372,8.372,0,0,1-8.639,8.675,8.193,8.193,0,0,1-8.535-8.6m14.944,0a6.044,6.044,0,0,0-6.305-6.34,6.48,6.48,0,0,0-.035,12.959,6.3,6.3,0,0,0,6.34-6.619" transform="translate(47.055 18.007)" fill="#fff"/>
      <path id="Path_2188" data-name="Path 2188" d="M252.542,93.989h-1.776v-1.95h1.776V84.27c0-3.206,1.533-5.225,4.181-5.225a5.217,5.217,0,0,1,2.021.382v1.952l-.035.034a3.957,3.957,0,0,0-1.778-.453c-1.428,0-2.194.942-2.194,3.171v7.909h3.972v1.95h-3.972v14.319h-2.2Z" transform="translate(50.413 15.891)" fill="#fff"/>
      <path id="Path_2189" data-name="Path 2189" d="M277.232,80.784h.174l11.114,27.173h-2.474l-3.066-7.7H271.169l-3.2,7.7h-2.438Zm4.912,17.385-4.879-12.3H277.2l-5.121,12.3Z" transform="translate(53.38 16.24)" fill="#fff"/>
      <path id="Path_2190" data-name="Path 2190" d="M289.821,89.864v10.312c0,2.786,1.6,4.32,4.076,4.32,2.438,0,4.11-1.6,4.11-4.529v-10.1h2.2v10.242a6.062,6.062,0,0,1-6.41,6.375c-3.728,0-6.167-2.264-6.167-6.131V89.864Z" transform="translate(57.823 18.066)" fill="#fff"/>
      <path id="Path_2191" data-name="Path 2191" d="M301.139,102.638l1.674-1.08a4.105,4.105,0,0,0,4.144,3.03,3.049,3.049,0,0,0,3.345-3.1c0-1.567-.872-2.4-3.206-3.1-3.38-1.011-4.458-2.37-4.458-4.564,0-2.439,1.984-4.25,4.737-4.25a5.11,5.11,0,0,1,4.459,2.474l-1.322,1.289a3.711,3.711,0,0,0-3.172-1.882,2.249,2.249,0,0,0-2.508,2.2c0,1.5.8,2.09,3.17,2.891,3.1,1.011,4.426,2.335,4.426,4.7a5.17,5.17,0,0,1-5.471,5.3,5.777,5.777,0,0,1-5.818-3.9" transform="translate(60.54 18.007)" fill="#fff"/>
      <path id="Path_2192" data-name="Path 2192" d="M317.146,85.309V90.78h3.03v1.95h-3.03v14.319h-2.2V92.73h-1.776V90.78h1.776V85.309Z" transform="translate(62.959 17.15)" fill="#fff"/>
      <path id="Path_2193" data-name="Path 2193" d="M322.28,89.922h2.2v2.159h.07a4.469,4.469,0,0,1,3.831-2.508,4.039,4.039,0,0,1,2.091.592l-.662,2.09h-.1a2.8,2.8,0,0,0-1.882-.627,3.609,3.609,0,0,0-3.344,3.832v10.73h-2.2Z" transform="translate(64.79 18.008)" fill="#fff"/>
      <path id="Path_2194" data-name="Path 2194" d="M330.6,98.109c0-5.086,3.447-8.535,8.012-8.535a6.937,6.937,0,0,1,6.131,3.239h.07V89.922h2.2v16.269h-2.2v-2.927h-.07a7.2,7.2,0,0,1-6.271,3.275c-4.7,0-7.873-3.589-7.873-8.431m14.457-.139a6.011,6.011,0,0,0-6.166-6.41c-3.554,0-6.064,2.543-6.064,6.445,0,4.076,2.474,6.549,5.958,6.549,3.694,0,6.272-2.821,6.272-6.584" transform="translate(66.463 18.008)" fill="#fff"/>
      <rect id="Rectangle_1718" data-name="Rectangle 1718" width="2.194" height="28.915" transform="translate(419.287 95.283)" fill="#fff"/>
      <path id="Path_2195" data-name="Path 2195" d="M355.8,85.2a1.585,1.585,0,1,1,1.567,1.6,1.49,1.49,0,0,1-1.567-1.6m2.717,22.261h-2.229V91.122h2.229Z" transform="translate(71.529 16.806)" fill="#fff"/>
      <path id="Path_2196" data-name="Path 2196" d="M362.242,98.109c0-5.086,3.448-8.535,8.012-8.535a6.936,6.936,0,0,1,6.131,3.239h.07V89.922h2.2v16.269h-2.2v-2.927h-.07a7.2,7.2,0,0,1-6.271,3.275c-4.7,0-7.873-3.589-7.873-8.431m14.457-.139a6.011,6.011,0,0,0-6.166-6.41c-3.554,0-6.063,2.543-6.063,6.445,0,4.076,2.474,6.549,5.958,6.549,3.693,0,6.271-2.821,6.271-6.584" transform="translate(72.823 18.008)" fill="#fff"/>
      <path id="Path_2197" data-name="Path 2197" d="M387.037,98.109c0-5.086,3.448-8.535,8.012-8.535a6.936,6.936,0,0,1,6.131,3.239h.07V89.922h2.2v16.269h-2.2v-2.927h-.07a7.2,7.2,0,0,1-6.271,3.275c-4.7,0-7.873-3.589-7.873-8.431m14.457-.139a6.011,6.011,0,0,0-6.166-6.41c-3.554,0-6.063,2.543-6.063,6.445,0,4.076,2.474,6.549,5.958,6.549,3.693,0,6.271-2.821,6.271-6.584" transform="translate(77.808 18.008)" fill="#fff"/>
      <path id="Path_2198" data-name="Path 2198" d="M405.393,89.922h2.2v2.334h.07a5.685,5.685,0,0,1,4.982-2.682,4.983,4.983,0,0,1,5.365,5.329v11.289h-2.194V95.461c0-2.509-1.36-3.937-3.763-3.937a4.375,4.375,0,0,0-4.459,4.6v10.068h-2.2Z" transform="translate(81.498 18.008)" fill="#fff"/>
      <path id="Path_2199" data-name="Path 2199" d="M419.544,100.167c0-5.052,3.448-8.535,8.084-8.535a6.941,6.941,0,0,1,6.235,3.344h.035V79.335h2.23V108.25H433.9v-2.892h-.035a7.247,7.247,0,0,1-6.306,3.24c-4.843,0-8.013-3.38-8.013-8.431m14.529-.139a6.117,6.117,0,0,0-6.2-6.41c-3.484,0-6.1,2.682-6.1,6.481,0,3.866,2.367,6.513,6.027,6.513,3.763,0,6.272-2.577,6.272-6.584" transform="translate(84.343 15.949)" fill="#fff"/>
      <path id="Path_2200" data-name="Path 2200" d="M222.666,119.785h.174l21.007,22.54.1-.035v-21.6h2.229v27.173h-.139l-21.077-22.505-.07.035v21.565h-2.229Z" transform="translate(44.764 24.081)" fill="#fff"/>
      <path id="Path_2201" data-name="Path 2201" d="M254.673,145.54c-4.913,0-8.083-3.449-8.083-8.431s3.345-8.535,8.048-8.535c4.6,0,7.733,3.448,7.733,8.848H248.82c.1,3.834,2.579,6.167,5.887,6.167,2.4,0,4.076-1.22,5.5-3.519l1.707,1.08a8.147,8.147,0,0,1-7.246,4.39m5.365-9.964c-.419-3.206-2.509-5.086-5.5-5.086-3.03,0-5.122,1.952-5.609,5.086Z" transform="translate(49.573 25.848)" fill="#fff"/>
      <path id="Path_2202" data-name="Path 2202" d="M261.178,128.992h2.368l4.912,12.193h.07l5.365-12.96h.139l5.365,13.1h.071l5.052-12.333h2.3l-7.386,17h-.139L274,133.068h-.1l-5.33,12.924h-.174Z" transform="translate(52.506 25.778)" fill="#fff"/>
      <path id="Path_2203" data-name="Path 2203" d="M290.815,146.7l15.678-24.074H292.313v-2.09H310.36l.035.1-15.712,24.074h15.259v2.09H290.85Z" transform="translate(58.464 24.233)" fill="#fff"/>
      <path id="Path_2204" data-name="Path 2204" d="M317.313,145.54c-4.913,0-8.082-3.449-8.082-8.431s3.344-8.535,8.047-8.535c4.6,0,7.733,3.448,7.733,8.848H311.459c.106,3.834,2.58,6.167,5.889,6.167,2.4,0,4.076-1.22,5.5-3.519l1.707,1.08a8.147,8.147,0,0,1-7.246,4.39m5.365-9.964c-.419-3.206-2.509-5.086-5.5-5.086-3.03,0-5.122,1.952-5.609,5.086Z" transform="translate(62.166 25.848)" fill="#fff"/>
      <path id="Path_2205" data-name="Path 2205" d="M325.121,137.109c0-5.086,3.449-8.535,8.013-8.535a6.936,6.936,0,0,1,6.131,3.239h.07v-2.891h2.2v16.269h-2.2v-2.927h-.07a7.2,7.2,0,0,1-6.271,3.275c-4.7,0-7.874-3.589-7.874-8.431m14.458-.139a6.011,6.011,0,0,0-6.166-6.41c-3.554,0-6.062,2.543-6.062,6.445,0,4.076,2.473,6.549,5.957,6.549,3.693,0,6.271-2.821,6.271-6.584" transform="translate(65.361 25.848)" fill="#fff"/>
      <rect id="Rectangle_1719" data-name="Rectangle 1719" width="2.194" height="28.916" transform="translate(412.705 142.122)" fill="#fff"/>
      <path id="Path_2206" data-name="Path 2206" d="M349.424,137.109c0-5.086,3.448-8.535,8.012-8.535a6.936,6.936,0,0,1,6.131,3.239h.07v-2.891h2.2v16.269h-2.2v-2.927h-.07a7.2,7.2,0,0,1-6.271,3.275c-4.7,0-7.873-3.589-7.873-8.431m14.457-.139a6.011,6.011,0,0,0-6.166-6.41c-3.554,0-6.063,2.543-6.063,6.445,0,4.076,2.474,6.549,5.958,6.549,3.693,0,6.271-2.821,6.271-6.584" transform="translate(70.247 25.848)" fill="#fff"/>
      <path id="Path_2207" data-name="Path 2207" d="M367.78,128.922h2.2v2.334h.07a5.685,5.685,0,0,1,4.982-2.682,4.983,4.983,0,0,1,5.365,5.329v11.289H378.2V134.46c0-2.508-1.36-3.936-3.763-3.936a4.375,4.375,0,0,0-4.459,4.6v10.068h-2.2Z" transform="translate(73.937 25.848)" fill="#fff"/>
      <path id="Path_2208" data-name="Path 2208" d="M381.931,139.167c0-5.052,3.449-8.535,8.084-8.535a6.94,6.94,0,0,1,6.235,3.344h.035V118.334h2.23V147.25h-2.23v-2.892h-.035a7.245,7.245,0,0,1-6.305,3.24c-4.843,0-8.013-3.38-8.013-8.431m14.529-.139a6.117,6.117,0,0,0-6.2-6.41c-3.484,0-6.1,2.682-6.1,6.48,0,3.867,2.367,6.514,6.026,6.514,3.763,0,6.272-2.577,6.272-6.584" transform="translate(76.782 23.789)" fill="#fff"/>
      <path id="Path_2209" data-name="Path 2209" d="M407.916,124.2a1.585,1.585,0,1,1,1.569,1.6,1.49,1.49,0,0,1-1.569-1.6m2.718,22.261H408.4V130.123h2.229Z" transform="translate(82.006 24.647)" fill="#fff"/>
      <path id="Path_2210" data-name="Path 2210" d="M415.253,128.922h2.2v2.334h.07a5.685,5.685,0,0,1,4.982-2.682,4.983,4.983,0,0,1,5.365,5.329v11.289h-2.194V134.46c0-2.508-1.36-3.936-3.763-3.936a4.375,4.375,0,0,0-4.459,4.6v10.068h-2.2Z" transform="translate(83.48 25.848)" fill="#fff"/>
      <path id="Path_2211" data-name="Path 2211" d="M438.044,130.559a6.5,6.5,0,0,0,.1,12.994A7.551,7.551,0,0,0,443.2,141.5h.1v2.23a9.089,9.089,0,0,1-5.366,1.812c-5.05,0-8.533-3.449-8.533-8.4a8.374,8.374,0,0,1,8.5-8.569,9.178,9.178,0,0,1,5.365,1.707v2.3l-.1.035a7.591,7.591,0,0,0-5.121-2.055" transform="translate(86.326 25.848)" fill="#fff"/>
      <path id="Path_2212" data-name="Path 2212" d="M444.107,141.587a1.572,1.572,0,0,1,1.673-1.672,1.554,1.554,0,0,1,1.671,1.672,1.672,1.672,0,1,1-3.344,0" transform="translate(89.281 28.128)" fill="#fff"/>
      <path id="Path_2213" data-name="Path 2213" d="M164.545,171.706c-.237,8.024,17.905,8.718,17.905,8.718,3.559.4,28.484-2.372,25.8-.031l15.176,9.585c-22.9,6.39-52.782.249-54.317,1.331-.265.187-64-10.134-97.985-33.549-10.258-7.068-19.218-12.835-25.994-18.7C15.144,113.082,16.306,98.4,15.738,98.916c-.759.692,3.727,36.478,46.862,65.5,41.915,28.2,100.344,32.254,100,32.2-.468-.071,10.634.6,10.634.6-.9,2.2-9.83,1.805-15.027,3.544-2.388.8-6.251,2.306-8.541,3.365-13.1,6.065-27.617,10.414-42.831,10.414-32.3,0-64.276-15.465-83.873-39.44C6.749,155.268,0,128.72,0,100.436c0-33.8,21.263-73.21,35.941-82.8,2.326-1.519-2.963,11.66-2.6,26.061.309,12.1,6.281,24.858,10.352,30.453,23.431,32.218,81.742,20.768,102.777,48.459,13.277,17.48,18.771,25.329,18.072,49.092" transform="translate(0 3.522)" fill="#fff"/>
      <path id="Path_2214" data-name="Path 2214" d="M199.062,158.826a107.426,107.426,0,0,1-13.473,18.889s-12.057-3.385-15.952-6.181-3.185-8.942-3.185-8.942a82.035,82.035,0,0,0,20.915-54.741c0-45.941-37.908-83.184-84.672-83.184A85.1,85.1,0,0,0,37.359,54.939S34.143,46.593,34.277,39.1a125.447,125.447,0,0,1,1.608-16.09A109.512,109.512,0,0,1,57.741,9.827L69.423,20.452c6.027-2.6,10.644-3.2,17.243-4.452L88.985.932A112.611,112.611,0,0,1,115.82.682l2.667,14.929a90.511,90.511,0,0,1,17.841,4.841L147.712,9.192a109.545,109.545,0,0,1,21.412,12.4l-4.608,16.084A94.109,94.109,0,0,1,176.85,51.026s6.179-3.04,10.26-3.7a42.669,42.669,0,0,1,5.269-.667,106.292,106.292,0,0,1,11.506,21.436L191.644,79.539a95.144,95.144,0,0,1,3.762,17.2l17.05,6.2q.085,2.108.084,4.237a106.078,106.078,0,0,1-1.638,18.608l-17.038,3.667a94.732,94.732,0,0,1-4.819,15.4Z" transform="translate(6.89)" fill="#fff"/>
      <path id="Path_2215" data-name="Path 2215" d="M144.833,108.226a50.489,50.489,0,0,0,.633-7.992c0-27.218-21.655-49.283-48.368-49.283A48.05,48.05,0,0,0,57.542,71.868l9.5,4.873A37.592,37.592,0,0,1,97.277,61.285c20.688,0,37.523,17.081,38.07,38.367Z" transform="translate(11.568 10.243)" fill="#fff"/>
    </g>
  </g>
</svg>
