<svg id="Group_3240" data-name="Group 3240" xmlns="http://www.w3.org/2000/svg" xmlns:xlink="http://www.w3.org/1999/xlink" width="497.481" height="320.372" viewBox="0 0 497.481 320.372">
  <defs>
    <clipPath id="clip-path">
      <rect id="Rectangle_1716" data-name="Rectangle 1716" width="497.481" height="320.372" fill="none"/>
    </clipPath>
  </defs>
  <g id="Group_3239" data-name="Group 3239" clip-path="url(#clip-path)">
    <path id="Path_2097" data-name="Path 2097" d="M460.4,193.817s15.584,17.634,20.013,25.572A280.377,280.377,0,0,1,496.346,253.3s8.524-24.09-21.125-65.784l-15.937,5.188" fill="#fff"/>
    <path id="Path_2098" data-name="Path 2098" d="M164.645,126.736s-65.6,17.048-108.219,47.809S.092,251.262.092,251.262-2.725,219.846,22.7,184.181c22.033-30.908,64.744-64.825,142.713-82.155Z" fill="#fff"/>
    <path id="Path_2099" data-name="Path 2099" d="M347.085,232.991a6.233,6.233,0,0,1-2.192-.431c-1.906-.719-4.091-3.226-9.848-10.207-5.209-6.314-12.344-14.963-16.26-16.731-1.9-.86-1.923-2.722-1.954-5.082a22.761,22.761,0,0,0-.54-5.526,44.527,44.527,0,0,0-6.842,2.636c-6.338,2.785-12.992,3.631-16.1-.741a5.022,5.022,0,0,1-.891-4.269c.81-3.181,5.783-1.749,8.388-4.814,3.644-4.29,3.027-9.822.039-9.75a14.2,14.2,0,0,0-1.46,2.067c-3.986,11.437-35.3,32.029-45.487,33.3-7.029.885-18.089-6.119-28.768-12.889-5.45-3.455-10.6-6.719-13.521-7.714-3.458-1.131-7.867-1.581-12.537-2.058-11.356-1.161-25.489-2.606-27.947-16.686l-.007-.045c-1.182-7.491,7.262-168.715,7.392-170.068.195-2.057,1.81-3.423,9.247-3.873C207.45-1.076,232.42,7.05,238.971,33.695a12.2,12.2,0,0,0,1.305-.336c1.49-1.828,3.344-4.065,6.18-4.263a6.263,6.263,0,0,1,4.773,1.9l13.2,12.36c3.375,2.707,3.785,7.952,4.115,12.175.082,1.057.16,2.056.276,2.795l.018.141a5.463,5.463,0,0,0,1.6,3.309l32.378,31.9a3.19,3.19,0,0,0,4.04.357l.262-.16a38.923,38.923,0,0,0,4.027-2.81c5.1-3.84,11.435-8.6,17-6.182,1.39.4,4.7,1.578,10.593,3.695,8.8,3.16,26.994,9.691,30.2,9.891l.146-.038,33.618.771c21.213,3.238,20.582,17.164,20.122,27.332-.242,5.341-.472,10.4,2.011,13.371,1.346.69,3.877,2.083,8.981,4.894l60.979,33.569-11.077-.115c-1.35-.014-2.581-.038-3.72-.061-8.573-.163-11.162-.219-19.647,4.876l-.167.091c-4.23,2.162-8.356,1.908-12.351,1.662q-.664-.041-1.347-.079c-2.562.11-5.808.047-9.237-.018-10.5-.2-24.877-.473-30.834,4.019l-33.4,27.242c-5,4.645-11.1-1.062-14.755-4.48a23.4,23.4,0,0,0-2.841-2.438l-.274-.155-.231-.211a1.672,1.672,0,0,0-2.013.1,1.32,1.32,0,0,0-.664,1.55l.043.111c.238.682.575,1.476.934,2.318,1.618,3.811,4.045,9.528.507,14.064l-.02.04c-1.1,2.237-2.992,6.1-6.613,6.1m-.138-5.616.009,0a12.7,12.7,0,0,0,1.739-2.942l.312-.634.222-.262c1.539-1.817.444-4.827-1.148-8.576-.385-.907-.75-1.766-1.045-2.6a6.812,6.812,0,0,1,2.686-8.137,7.184,7.184,0,0,1,8.7.15,26.568,26.568,0,0,1,3.643,3.063c2.087,1.955,5.975,5.6,7.185,4.436l.163-.144,33.56-27.369c7.578-5.716,22.446-5.435,34.377-5.206,3.4.063,6.612.125,9.019.016l.138-.006.137.007c.517.028,1.026.059,1.528.09,3.652.225,6.546.4,9.393-1.022,6.74-4.037,10.615-5.262,15.309-5.575l-51.24-28.207-.4-.222-.313-.341c-4.253-4.645-3.954-11.237-3.665-17.612.482-10.626.863-19.027-15.22-21.542l-32.495-.725c-2.557.231-8.96-1.673-32.688-10.191-4.8-1.726-9.341-3.355-10.347-3.611l-.511-.185c-2.571-1.228-7.946,2.815-11.5,5.49a42.681,42.681,0,0,1-4.619,3.2A8.769,8.769,0,0,1,298.9,97.651l-32.377-31.9a11.04,11.04,0,0,1-3.218-6.626c-.143-.936-.227-2.015-.316-3.156-.221-2.834-.555-7.115-2.074-8.283l-.207-.175L247.432,35.077a1.666,1.666,0,0,0-.618-.424c-.487.1-1.693,1.581-2.272,2.292l-.976,1.18-.727.254c-3.3,1.156-5.489,1.275-7.094.378a3.886,3.886,0,0,1-1.922-2.6c-2.56-11.685-8.993-20.212-19.124-25.343-12.527-6.346-26.487-5.5-30.715-4.663C182.8,25,175.791,166.807,176.66,173.172c1.626,9.2,10.173,10.754,23.019,12.067,4.757.486,9.674.989,13.735,2.317,3.581,1.219,8.752,4.5,14.739,8.293,8.454,5.359,20.049,12.71,25.094,12.066,4.031-.5,13.737-5.675,23.08-12.294,10.026-7.106,17.381-14.211,18.738-18.1,1.976-5.667,6.333-5.187,7.7-4.849,5.061,1.243,6.147,7.566,5.674,10.786-.409,2.78-1.821,6.493-4.942,8.014-1.4.679-4.228,1.261-5.244,2.134,1.872-.023,6.432.05,8.95-1.055,5.739-2.522,11.8-5.211,13.873-.621,1.244,2.746,1.291,6.231,1.321,8.537,0,.246.008.528.013.792a169.7,169.7,0,0,1,16.928,17.55c2.874,3.484,6.438,7.806,7.6,8.568" fill="#fff"/>
    <path id="Path_2100" data-name="Path 2100" d="M412.927,122.681c.094-5.559.277-6.2-3.3-9.843-2.294-2.332-6.239-2.224-10.5-2.038l-29.649-.433a18.029,18.029,0,0,1-5.441-.964L327.9,97.457a5.206,5.206,0,0,0-5.559.742l-12.292,8.709c-2.228,1.5-9.428.438-11.353-1.424L261.191,67.5a11.454,11.454,0,0,1-3.027-5.62l-.124-6.919a7.614,7.614,0,0,0-2.487-4.806l-9.187-7.239c-1.665.659-5.824,2.374-8.586,1.915-1.759.09-6.463-2.374-6.981-4.31-8.053-36.09-42.566-30.987-42.741-29.182-.128,1.311-4.114,82.093-5.994,127.628,0,0,47.8-19.959,99.51-23.534,75.05-5.188,131.353,7.249,131.353,7.249" fill="#fff"/>
    <path id="Path_2101" data-name="Path 2101" d="M235.635,146.872l12.875-22.348c-39.755,7.381-66.829,18.355-66.829,18.355q-.087,2.085-.162,3.993Z" fill="#fff"/>
    <path id="Path_2102" data-name="Path 2102" d="M229.443,157.62l3.665-6.362h-51.76c-.079,2.093-.217,4.643-.274,6.362Z" fill="#fff"/>
    <path id="Path_2103" data-name="Path 2103" d="M246.657,151.749l.266-.009,17.122-29.8q-5.4.791-10.565,1.689l-34.419,61.2a55.294,55.294,0,0,1,6.594,3.913l21.268-37.009-.266.009" fill="#fff"/>
    <path id="Path_2104" data-name="Path 2104" d="M344.334,127.453l4.626-8.494c23.983,1.5,44.1,4.4,55.283,6.258l-1.479,2.5Z" fill="#fff"/>
    <line id="Line_1" data-name="Line 1" y1="17.054" x2="10.098" transform="translate(381.51 146.557)" fill="#fff"/>
    <path id="Path_2105" data-name="Path 2105" d="M361.1,198.079l-1.472,2.484-1.153-1a13.317,13.317,0,0,0-12.972,1.668c-5,3.521-3.892,12.045-3.892,12.045-2.346-2.779-10.686-11.489-13.914-15.344Z" fill="#fff"/>
    <path id="Path_2106" data-name="Path 2106" d="M373.683,176.83l-10.057,16.985H326.048c.062-8.83-8.586-9.757-13.053-7.57-.723.354,1.132-2.35,2.12-4.72l2.311-4.665Z" fill="#fff"/>
    <path id="Path_2107" data-name="Path 2107" d="M380.022,166.124l-4.874,8.232-56.715.653,4.839-8.885Z" fill="#fff"/>
    <path id="Path_2108" data-name="Path 2108" d="M381.51,163.611H324.641l9.288-17.054,57.492.315Z" fill="#fff"/>
    <path id="Path_2109" data-name="Path 2109" d="M399.808,132.708l-5.751,9.713H336.182l5.535-10.163Z" fill="#fff"/>
    <path id="Path_2110" data-name="Path 2110" d="M424.879,151.258l-6.551-3.6a8.156,8.156,0,0,1-4.2-3.758c-.567-1.075-1.061-2.194-1.367-2.928L406.8,151.258Z" fill="#fff"/>
    <path id="Path_2111" data-name="Path 2111" d="M385.837,187.424l-6.606,11.4c4.054-3.336,9.057-7.6,13.838-11.4" fill="#fff"/>
    <path id="Path_2112" data-name="Path 2112" d="M398.131,183.536c3.516-2.584,6.631-4.571,8.773-5.285,10.316-3.439,33.157-2.5,40.907-1.872a10.712,10.712,0,0,0,5.635-1.081,41.118,41.118,0,0,0,6.209-4.027l-9.574-5.126-52.106.341-9.761,16.838Z" fill="#fff"/>
    <path id="Path_2113" data-name="Path 2113" d="M443.162,162.006l-7.042-4.386H403.114l-2.542,4.386Z" fill="#fff"/>
    <path id="Path_2114" data-name="Path 2114" d="M408.856,126.009c1.772.318,3.857.711,3.857.711-.043,2.588.129,5.406-.106,9.6L372.18,204.738c-.827.727-1.288,1.14-1.288,1.14a3.961,3.961,0,0,1-5.165-.025l-2.853-2.475Z" fill="#fff"/>
    <path id="Path_2115" data-name="Path 2115" d="M322.455,138.472l-17.042,29.5a11.3,11.3,0,0,1,6.755,8.353l32.6-57.615q-5.211-.283-10.625-.466Z" fill="#fff"/>
    <path id="Path_2116" data-name="Path 2116" d="M319.977,134.272l9.716-16.152a392.162,392.162,0,0,0-45.34,1.389q-8.322.774-16.235,1.861l-7.246,12.9Z" fill="#fff"/>
    <path id="Path_2117" data-name="Path 2117" d="M279.349,187.465c-9.156,8.047-20.01,14.294-25.262,14.938-5.956.731-16.444-5.441-25.085-11.384l2.208-3.932Z" fill="#fff"/>
    <path id="Path_2118" data-name="Path 2118" d="M233.249,183.456l3.721-6.626h53.19c-2.074,2.058-4.282,4.284-6.733,6.546Z" fill="#fff"/>
    <path id="Path_2119" data-name="Path 2119" d="M239.191,172.877l13.309-23.7,59.094.164-11.419,17.884a9.418,9.418,0,0,0-5.382,1.511c-.872.495-3.779,2.778-3.646,4.555Z" fill="#fff"/>
    <path id="Path_2120" data-name="Path 2120" d="M312.4,146.872l4.974-8.269-58.928-.009-4.471,7.962Z" fill="#fff"/>
    <path id="Path_2121" data-name="Path 2121" d="M112.877,228.332v3.649h-8.328v5.879h7.409v3.648h-7.409v7.772H99.785V228.332Z" fill="#fff"/>
    <path id="Path_2122" data-name="Path 2122" d="M122.686,249.7c-4.986,0-7.938-2.7-7.938-8.133,0-5.4,2.9-8.218,7.967-8.218,4.985,0,7.938,2.7,7.938,8.134,0,5.4-2.9,8.217-7.967,8.217m3.064-8.133c0-3.037-.808-5.014-3.064-5.014s-3.036,1.977-3.036,4.93c0,3.036.807,5.014,3.065,5.014s3.035-1.978,3.035-4.93" fill="#fff"/>
    <path id="Path_2123" data-name="Path 2123" d="M145.059,249.28l-.836-2.674c-.5,1.811-1.977,3.008-4.652,3.008a4.843,4.843,0,0,1-4.289-1.922c-.891-1.281-.891-2.813-.891-4.819v-9.109h4.679V242.9a3.45,3.45,0,0,0,.418,2.061,2.467,2.467,0,0,0,2.117.92c2.229,0,2.4-1.755,2.4-2.813v-9.3h4.68V249.28Z" fill="#fff"/>
    <path id="Path_2124" data-name="Path 2124" d="M156.874,233.764l.836,2.674c.529-1.838,1.977-3.008,4.707-3.008a4.994,4.994,0,0,1,4.457,1.977c.891,1.283.891,2.758.891,4.764v9.109h-4.68v-9.137a3.45,3.45,0,0,0-.418-2.061,2.382,2.382,0,0,0-2.145-.919c-2.367,0-2.59,1.727-2.59,2.813v9.3h-4.679V233.764Z" fill="#fff"/>
    <path id="Path_2125" data-name="Path 2125" d="M187.046,227.553V249.28h-3.7l-.808-2.451c-.586,1.894-2.369,2.785-4.625,2.785-4.429,0-6.545-3.426-6.545-7.967,0-4.6,2.172-8.217,6.824-8.217,1.921,0,3.566.613,4.262,2.451v-8.328Zm-10.78,13.955c0,2.674.78,4.624,3.091,4.624,2.341,0,3.121-1.95,3.121-4.624s-.78-4.623-3.093-4.623c-2.339,0-3.119,1.949-3.119,4.623" fill="#fff"/>
    <path id="Path_2126" data-name="Path 2126" d="M192.093,234.237a18.812,18.812,0,0,1,5.431-.695c2.758,0,4.847.473,5.9,1.949.865,1.2.865,2.7.865,4.262v4.541c0,.668,0,1.838,1.336,1.838a3.245,3.245,0,0,0,.7-.084v3.176a12.656,12.656,0,0,1-2.4.25c-2.145,0-3.4-.724-3.676-2.758-.558,1.867-2.4,2.786-4.625,2.786-3.119,0-5.153-1.811-5.153-4.708,0-3.565,3.12-5.152,7.8-5.152.891,0,1.449.055,1.449.055a3.139,3.139,0,0,0-.39-2.034c-.39-.556-1.115-.835-2.451-.835a14.836,14.836,0,0,0-4.569.835h-.222Zm5.014,11.922a2.433,2.433,0,0,0,2.228-1.225,4.8,4.8,0,0,0,.39-2.173v-.418h-.78c-1.254,0-3.76,0-3.76,2.062a1.689,1.689,0,0,0,1.922,1.754" fill="#fff"/>
    <path id="Path_2127" data-name="Path 2127" d="M219.089,249.169A13.515,13.515,0,0,1,216,249.5c-2.368,0-3.955-.557-4.819-1.838a7.132,7.132,0,0,1-.752-4.067v-6.213H207.7v-3.4h2.73v-3.705l4.6-1.253v4.958h4.067v3.4h-4.067v6.073a3.617,3.617,0,0,0,.334,1.978,1.785,1.785,0,0,0,1.616.641,7.142,7.142,0,0,0,1.894-.279h.223Z" fill="#fff"/>
    <path id="Path_2128" data-name="Path 2128" d="M227.921,229.419a2.663,2.663,0,1,1-2.646-2.535,2.424,2.424,0,0,1,2.646,2.535m-.362,19.861h-4.6V233.764h4.6Z" fill="#fff"/>
    <path id="Path_2129" data-name="Path 2129" d="M239.26,249.7c-4.986,0-7.938-2.7-7.938-8.133,0-5.4,2.9-8.218,7.967-8.218,4.985,0,7.938,2.7,7.938,8.134,0,5.4-2.9,8.217-7.967,8.217m3.064-8.133c0-3.037-.808-5.014-3.064-5.014s-3.036,1.977-3.036,4.93c0,3.036.807,5.014,3.065,5.014s3.035-1.978,3.035-4.93" fill="#fff"/>
    <path id="Path_2130" data-name="Path 2130" d="M254.586,233.764l.836,2.674c.529-1.838,1.977-3.008,4.707-3.008a4.994,4.994,0,0,1,4.457,1.977c.891,1.283.891,2.758.891,4.764v9.109H260.8v-9.137a3.45,3.45,0,0,0-.418-2.061,2.382,2.382,0,0,0-2.145-.919c-2.367,0-2.59,1.727-2.59,2.813v9.3h-4.679V233.764Z" fill="#fff"/>
    <path id="Path_2131" data-name="Path 2131" d="M65.552,279.371l-2.032-2.006a8.936,8.936,0,0,1-6.6,2.34c-4.736,0-7.326-2.117-7.326-5.543,0-2.785,1.7-4.373,4.374-5.655-1.756-1.726-2.758-3.148-2.758-5.152,0-3.092,2.367-5.321,6.574-5.321,4.094,0,6.295,2.116,6.295,4.847,0,2.618-2.09,4.261-4.457,5.71l4.012,3.844a16.1,16.1,0,0,0,1.086-4.318h4.206a13.522,13.522,0,0,1-2.507,6.63l4.54,4.4v.223Zm-4.344-4.178-4.819-4.513c-1.2.892-2.035,1.839-2.035,3.12,0,1.671,1.365,2.7,3.371,2.7a5.228,5.228,0,0,0,3.483-1.309m-3.6-8.5c1.338-.975,2.563-2.033,2.563-3.51a2.116,2.116,0,0,0-2.312-2.117,2.048,2.048,0,0,0-2.229,2.117c0,1.114.641,2.172,1.978,3.51" fill="#fff"/>
    <path id="Path_2132" data-name="Path 2132" d="M94.808,258.423v3.649H86.479v5.879h7.409V271.6H86.479v7.772H81.715V258.423Z" fill="#fff"/>
    <path id="Path_2133" data-name="Path 2133" d="M104.617,279.788c-4.986,0-7.938-2.7-7.938-8.133,0-5.4,2.9-8.218,7.967-8.218,4.985,0,7.938,2.7,7.938,8.134,0,5.4-2.9,8.217-7.967,8.217m3.064-8.133c0-3.037-.808-5.014-3.064-5.014s-3.036,1.977-3.036,4.93c0,3.036.807,5.014,3.065,5.014s3.035-1.978,3.035-4.93" fill="#fff"/>
    <path id="Path_2134" data-name="Path 2134" d="M123.424,279.788c-4.986,0-7.938-2.7-7.938-8.133,0-5.4,2.9-8.218,7.967-8.218,4.985,0,7.938,2.7,7.938,8.134,0,5.4-2.9,8.217-7.967,8.217m3.064-8.133c0-3.037-.808-5.014-3.064-5.014s-3.036,1.977-3.036,4.93c0,3.036.807,5.014,3.065,5.014s3.035-1.978,3.035-4.93" fill="#fff"/>
    <path id="Path_2135" data-name="Path 2135" d="M144.822,279.26a13.516,13.516,0,0,1-3.092.334c-2.368,0-3.955-.557-4.819-1.838a7.14,7.14,0,0,1-.751-4.067v-6.213h-2.731v-3.4h2.731v-3.705l4.6-1.253v4.958h4.067v3.4h-4.067v6.073a3.617,3.617,0,0,0,.334,1.978,1.785,1.785,0,0,0,1.616.641,7.132,7.132,0,0,0,1.894-.279h.223Z" fill="#fff"/>
    <path id="Path_2136" data-name="Path 2136" d="M153.655,259.51a2.663,2.663,0,1,1-2.646-2.535,2.424,2.424,0,0,1,2.646,2.535m-.362,19.861h-4.6V263.855h4.6Z" fill="#fff"/>
    <path id="Path_2137" data-name="Path 2137" d="M161.513,263.855l.836,2.674c.529-1.838,1.977-3.008,4.707-3.008a4.994,4.994,0,0,1,4.457,1.977c.891,1.283.891,2.758.891,4.764v9.109h-4.68v-9.137a3.45,3.45,0,0,0-.418-2.061,2.382,2.382,0,0,0-2.145-.919c-2.367,0-2.59,1.727-2.59,2.813v9.3h-4.679V263.855Z" fill="#fff"/>
    <path id="Path_2138" data-name="Path 2138" d="M183.3,273.494a12.959,12.959,0,0,1-1.865-.139,1.172,1.172,0,0,0-.614,1.058c0,1,1.114,1,1.895,1h2.924c1.644,0,6.045,0,6.045,4.318,0,3.426-2.73,5.209-8.914,5.209-5.32,0-7.409-1.31-7.409-3.539,0-2.617,2.841-3.008,2.981-3.035a2.931,2.931,0,0,1-2.118-2.674c0-2.09,2.061-2.731,3.12-2.9a4.446,4.446,0,0,1-2.9-4.291c0-3.147,2.563-5.041,6.852-5.041a8.324,8.324,0,0,1,5.127,1.42,2.986,2.986,0,0,1,3.314-2.2h.334v3.7a7.553,7.553,0,0,0-1.253-.111,2.837,2.837,0,0,0-1.114.168,4.97,4.97,0,0,1,.445,2.06c0,3.149-2.562,4.987-6.853,4.987m-3.2,5.459a1.633,1.633,0,0,0-.724,1.394c0,1.225,1.2,1.754,3.621,1.754,2.7,0,3.927-.64,3.927-1.783,0-1.309-1.559-1.365-2.311-1.365Zm5.4-10.473a2.2,2.2,0,1,0-2.2,2.117,1.96,1.96,0,0,0,2.2-2.117" fill="#fff"/>
    <path id="Path_2139" data-name="Path 2139" d="M205.115,267.644h-.223a14.308,14.308,0,0,0-3.871-.78c-1.365,0-1.951.5-1.951,1.114,0,2.062,6.8,1.365,6.8,6.686,0,3.2-2.451,4.93-6.8,4.93a13.834,13.834,0,0,1-4.652-.725v-3.426h.224a17.081,17.081,0,0,0,4.54.92c1.421,0,2.033-.5,2.033-1.226,0-2.423-6.8-1.643-6.8-6.685,0-3.009,2.4-4.819,6.574-4.819a14.359,14.359,0,0,1,4.123.585Z" fill="#fff"/>
    <path id="Path_2140" data-name="Path 2140" d="M230.217,262.546h-.222a17.739,17.739,0,0,0-5.014-1c-2.034,0-2.981.807-2.981,1.977,0,3.705,9.22,2.7,9.22,9.722,0,4.206-3.286,6.351-8.384,6.351a16.717,16.717,0,0,1-5.738-.947v-3.622h.222a18.947,18.947,0,0,0,5.6,1.226c2.089,0,3.315-.891,3.315-2.339,0-3.928-9.22-3.092-9.22-9.75,0-3.788,2.953-5.961,7.855-5.961a18.355,18.355,0,0,1,5.348.808Z" fill="#fff"/>
    <path id="Path_2141" data-name="Path 2141" d="M242.2,279.788c-4.986,0-7.938-2.7-7.938-8.133,0-5.4,2.9-8.218,7.967-8.218,4.985,0,7.938,2.7,7.938,8.134,0,5.4-2.9,8.217-7.967,8.217m3.064-8.133c0-3.037-.808-5.014-3.064-5.014s-3.036,1.977-3.036,4.93c0,3.036.807,5.014,3.065,5.014s3.035-1.978,3.035-4.93" fill="#fff"/>
    <path id="Path_2142" data-name="Path 2142" d="M264.543,279.148a12.321,12.321,0,0,1-3.426.446c-5.32,0-8.05-3.036-8.05-7.995s2.73-7.966,8.05-7.966a12.346,12.346,0,0,1,3.426.445v3.566h-.222a8.87,8.87,0,0,0-2.731-.5c-2.562,0-3.621,1.672-3.621,4.485s1.059,4.457,3.621,4.457a8.87,8.87,0,0,0,2.731-.5h.222Z" fill="#fff"/>
    <path id="Path_2143" data-name="Path 2143" d="M273.294,259.51a2.663,2.663,0,1,1-2.646-2.535,2.424,2.424,0,0,1,2.646,2.535m-.363,19.861h-4.6V263.855h4.6Z" fill="#fff"/>
    <path id="Path_2144" data-name="Path 2144" d="M290.316,278.926a20.576,20.576,0,0,1-5.209.668c-3.092,0-4.959-.752-6.211-1.895a7.977,7.977,0,0,1-2.2-6.072c0-4.959,2.646-8.19,7.52-8.19,2.564,0,4.68.891,5.878,2.731,1.17,1.81,1.17,4.066,1.17,6.713H281.43c0,2.144,1.392,3.453,4.066,3.453a17.7,17.7,0,0,0,4.6-.807h.223Zm-3.705-8.887c0-2.089-.584-3.482-2.451-3.482-1.895,0-2.647,1.421-2.758,3.482Z" fill="#fff"/>
    <path id="Path_2145" data-name="Path 2145" d="M304.861,279.26a13.516,13.516,0,0,1-3.092.334c-2.368,0-3.955-.557-4.819-1.838a7.132,7.132,0,0,1-.752-4.067v-6.213h-2.73v-3.4h2.73v-3.705l4.6-1.253v4.958h4.067v3.4h-4.067v6.073a3.617,3.617,0,0,0,.334,1.978,1.785,1.785,0,0,0,1.616.641,7.132,7.132,0,0,0,1.894-.279h.223Z" fill="#fff"/>
    <path id="Path_2146" data-name="Path 2146" d="M317.732,278.926c-1.226,3.259-2.479,5.877-6.992,5.877a9.257,9.257,0,0,1-2.172-.223v-3.454h.223a7.219,7.219,0,0,0,1.838.307c1.588,0,2.228-1.031,2.9-2.619l-6.24-14.959h5.125l3.482,9.639,3.37-9.639H323.5Z" fill="#fff"/>
    <path id="Path_2147" data-name="Path 2147" d="M232.257,296.358s-3.485,4.229-3.485,12.02,3.485,11.994,3.485,11.994h-1.871a19.827,19.827,0,0,1,0-24.014Z" fill="#fff"/>
    <path id="Path_2148" data-name="Path 2148" d="M237.025,297.077l5.51,16.351,5.74-16.351h2.282l-7.074,19.272h-2.358l-6.843-19.272Z" fill="#fff"/>
    <rect id="Rectangle_1714" data-name="Rectangle 1714" width="2.486" height="19.272" transform="translate(253.687 297.076)" fill="#fff"/>
    <path id="Path_2149" data-name="Path 2149" d="M273.447,315.887a12.83,12.83,0,0,1-4.177.666c-6.406,0-9.047-4.535-9.047-9.841s2.641-9.841,9.047-9.841a12.813,12.813,0,0,1,4.177.667v2h-.2a10.786,10.786,0,0,0-3.844-.768c-4.561,0-6.534,3.562-6.534,7.919s1.973,7.97,6.534,7.97a10.774,10.774,0,0,0,3.844-.769h.2Z" fill="#fff"/>
    <path id="Path_2150" data-name="Path 2150" d="M276.4,320.372s3.485-4.228,3.485-12.02-3.485-11.994-3.485-11.994h1.871a19.827,19.827,0,0,1,0,24.014Z" fill="#fff"/>
    <rect id="Rectangle_1715" data-name="Rectangle 1715" width="2.486" height="19.272" transform="translate(293.931 297.076)" fill="#fff"/>
    <path id="Path_2151" data-name="Path 2151" d="M303.159,302.432l.513,2.384c.384-1.641,1.64-2.692,4.073-2.692a4.459,4.459,0,0,1,4,1.8c.82,1.178.82,2.665.82,4.228v8.2H310.1v-8.227a4.895,4.895,0,0,0-.539-2.793,2.918,2.918,0,0,0-2.613-1.179c-2.9,0-3.2,2.307-3.2,3.588v8.611h-2.46V302.432Z" fill="#fff"/>
    <path id="Path_2152" data-name="Path 2152" d="M325.919,316.093a9.989,9.989,0,0,1-3.075.46c-4.3,0-6.689-2.69-6.689-7.149s2.384-7.176,6.689-7.176a10.15,10.15,0,0,1,3.075.462v2.024h-.205a7.41,7.41,0,0,0-2.767-.59c-2.691,0-4.178,1.948-4.178,5.2s1.487,5.33,4.178,5.33a7.594,7.594,0,0,0,2.767-.589h.205Z" fill="#fff"/>
    <path id="Path_2153" data-name="Path 2153" d="M332.15,314.913a1.563,1.563,0,1,1-1.563-1.563,1.493,1.493,0,0,1,1.563,1.563" fill="#fff"/>
    <path id="Path_2154" data-name="Path 2154" d="M226.917,162.006l-11.735,20.37a164.781,164.781,0,0,0-17.057-3.322c-8.665-1.2-16.019-2.626-17.069-9.157a66.144,66.144,0,0,1-.057-7.889Z" fill="#fe0"/>
    <path id="Path_2155" data-name="Path 2155" d="M226.917,162.006l-11.735,20.37a164.781,164.781,0,0,0-17.057-3.322c-8.665-1.2-16.019-2.626-17.069-9.157a66.144,66.144,0,0,1-.057-7.889Z" fill="#1a1818"/>
    <path id="Path_2156" data-name="Path 2156" d="M226.917,162.006l-11.735,20.37a164.781,164.781,0,0,0-17.057-3.322c-8.665-1.2-16.019-2.626-17.069-9.157a66.144,66.144,0,0,1-.057-7.889Z" fill="#fff"/>
  </g>
</svg>
