<?xml version="1.0" encoding="UTF-8"?>
<svg id="Layer_2" data-name="Layer 2" xmlns="http://www.w3.org/2000/svg" viewBox="0 0 685.68 140">
  <defs>
    <style>
      .cls-1 {
        fill: #609abf;
      }

      .cls-2 {
        fill: #fff;
      }
    </style>
  </defs>
  <g id="logo-horizontal">
    <g>
      <g>
        <polygon class="cls-1" points="50.27 124.08 15.92 89.73 0 89.73 50.27 140 100.55 89.73 84.63 89.73 50.27 124.08"/>
        <rect class="cls-1" y="42.29" width="11.25" height="42.38"/>
        <polygon class="cls-2" points="100.55 42.29 100.55 42.29 100.53 42.29 84.61 42.29 84.63 42.29 50.27 76.64 15.92 42.29 42.31 15.92 42.31 0 42.29 0 0 42.29 50.27 92.56 89.29 53.54 89.29 84.66 100.55 84.66 100.55 42.29 100.55 42.29"/>
      </g>
      <g>
        <path class="cls-1" d="M399.13,42.97c8.06,0,12.21,4.83,12.21,13.26v1.67h-7.86v-2.26c0-3.77-1.51-5.21-4.15-5.21s-4.15,1.44-4.15,5.21c0,10.86,16.15,12.89,16.15,27.96,0,8.45-4.22,13.26-12.37,13.26s-12.35-4.81-12.35-13.26v-3.23h7.88v3.77c0,3.77,1.67,5.12,4.31,5.12s4.29-1.35,4.29-5.12c0-10.86-16.15-12.91-16.15-27.98-.04-8.36,4.11-13.19,12.19-13.19Z"/>
        <path class="cls-1" d="M415.24,43.58h25.63v7.54h-8.69v45.23h-8.29v-45.23h-8.67l.02-7.54Z"/>
        <path class="cls-1" d="M463.33,96.35c-.69-2.09-.94-4.3-.75-6.5v-8.27c0-4.9-1.65-6.71-5.38-6.71h-2.87v21.54h-8.29v-52.82h12.56c8.6,0,12.29,4,12.29,12.13v4.15c0,5.38-1.79,8.97-5.38,10.77,4.15,1.79,5.51,5.74,5.51,11.24v8.15c-.15,2.18.15,4.36.9,6.41l-8.58-.07ZM454.35,51.12v16.15h3.23c3.11,0,4.99-1.36,4.99-5.58v-5.15c0-3.77-1.29-5.38-4.22-5.38l-4-.04Z"/>
        <path class="cls-1" d="M485.71,43.58v40.78c0,3.77,1.65,5.12,4.29,5.12s4.29-1.35,4.29-5.12v-40.78h7.9v40.19c0,8.44-4.22,13.26-12.37,13.26s-12.35-4.83-12.35-13.26v-40.19h8.24Z"/>
        <path class="cls-1" d="M533.33,76.68v7c0,8.45-4.22,13.26-12.35,13.26s-12.37-4.81-12.37-13.26v-27.44c0-8.44,4.22-13.26,12.37-13.26s12.35,4.83,12.35,13.26v5.13h-7.81v-5.73c0-3.77-1.65-5.21-4.29-5.21s-4.29,1.44-4.29,5.21v28.57c0,3.77,1.65,5.12,4.29,5.12s4.29-1.38,4.29-5.12v-7.54h7.81Z"/>
        <path class="cls-1" d="M537.47,43.58h25.63v7.54h-8.67v45.23h-8.29v-45.23h-8.67v-7.54Z"/>
        <path class="cls-1" d="M576.14,43.58v40.78c0,3.77,1.65,5.12,4.29,5.12s4.33-1.42,4.33-5.12v-40.78h7.83v40.19c0,8.44-4.22,13.26-12.35,13.26s-12.37-4.83-12.37-13.26v-40.19h8.27Z"/>
        <path class="cls-1" d="M617.06,96.35c-.69-2.09-.94-4.3-.75-6.5v-8.27c0-4.9-1.67-6.71-5.38-6.71h-2.84v21.54h-8.29v-52.82h12.56c8.6,0,12.29,4,12.29,12.13v4.15c0,5.38-1.79,8.97-5.38,10.77,4.15,1.79,5.51,5.74,5.51,11.24v8.15c-.15,2.18.15,4.36.9,6.41l-8.62-.07ZM608.08,51.12v16.15h3.23c3.11,0,4.97-1.36,4.97-5.58v-5.15c0-3.77-1.27-5.38-4.22-5.38l-3.98-.04Z"/>
        <path class="cls-1" d="M658.34,96.35h-8.38l-1.42-9.58h-10.18l-1.44,9.58h-7.61l8.44-52.77h12.13l8.45,52.77ZM639.41,79.6h8.01l-4-26.67-4,26.67Z"/>
        <path class="cls-1" d="M663.73,43.58h8.29v45.23h13.66v7.54h-21.95v-52.77Z"/>
      </g>
      <g>
        <path class="cls-2" d="M132.52,96.31h-3.46l-11.15-46.67v46.67h-3.09v-52.7h4.97l11.07,46.67,11.02-46.67h4.97v52.77h-3.32v-46.9l-11.02,46.83Z"/>
        <path class="cls-2" d="M172.22,68.04v3.16h-14.36v22.01h17.34v3.18h-20.84v-52.77h20.8v3.09h-17.39v21.34h14.45Z"/>
        <path class="cls-2" d="M182.32,96.38v-52.77h3.46v49.59h16.58v3.18h-20.05Z"/>
        <path class="cls-2" d="M220.14,43.62c7.92,0,10.77,3.91,10.77,11.24v3.02c0,5.73-1.58,9.26-6.93,10.39,5.73,1.13,7.92,5.38,7.92,11.31v4.59c0,7.63-3.48,12.22-11.54,12.22h-11.31v-52.77h11.09ZM218.35,66.95c6.17,0,8.97-1.67,8.97-8.38v-3.41c0-5.51-1.79-8.38-7.39-8.38h-7.54v20.14l5.96.04ZM220.3,93.24c5.8,0,8.06-3.23,8.06-9.12v-4.77c0-6.87-3.09-9.28-9.33-9.28h-6.57v23.14l7.84.04Z"/>
        <path class="cls-2" d="M238.83,56.5c0-7.68,3.59-13.34,11.54-13.34s11.68,5.65,11.68,13.34v26.92c0,7.68-3.59,13.34-11.68,13.34s-11.54-5.65-11.54-13.34v-26.92ZM242.31,83.71c0,5.73,2.26,9.96,8.06,9.96s8.22-4.24,8.22-9.96v-27.44c0-5.73-2.33-9.94-8.22-9.94s-8.06,4.22-8.06,9.94v27.44Z"/>
        <path class="cls-2" d="M272.64,83.64c0,5.65,2.12,10.03,7.93,10.03s7.9-4.38,7.9-10.03v-40.03h3.25v39.88c0,7.54-3.16,13.34-11.24,13.34s-11.43-5.8-11.43-13.34v-39.88h3.59v40.03Z"/>
        <path class="cls-2" d="M310.12,43.62c8.08,0,11.31,4.45,11.31,11.9v4.61c0,6.17-2.41,9.71-7.61,10.93,5.38,1.2,7.61,5.04,7.61,10.77v8.22c-.16,2.19.28,4.38,1.29,6.34h-3.59c-.92-1.98-1.31-4.16-1.13-6.34v-8.29c0-7-3.84-8.97-9.87-8.97h-5.51v23.6h-3.46v-52.77h10.97ZM308.16,69.62c6.19,0,9.8-1.79,9.8-8.83v-4.97c0-5.65-2.17-8.97-7.92-8.97h-7.47v22.78h5.58Z"/>
        <path class="cls-2" d="M332.88,96.38h-3.16v-52.77h4.52l15.83,44.55v-44.55h3.16v52.77h-3.84l-16.51-47.04v47.04Z"/>
        <path class="cls-2" d="M378.54,68.04v3.16h-14.36v22.01h17.34v3.18h-20.82v-52.77h20.8v3.09h-17.32v21.34h14.36Z"/>
      </g>
    </g>
  </g>
</svg>