<svg id="Group_3248" data-name="Group 3248" xmlns="http://www.w3.org/2000/svg" width="579.998" height="232.065" viewBox="0 0 579.998 232.065">
  <path id="Path_2216" data-name="Path 2216" d="M83.745,95.555a103.573,103.573,0,0,0,13.39,1.222c15.617.066,23.481-3.5,23.481-3.5l-.051.042v31.176H1.711V93.316l.053-.042s20.937-3.256,33.092-3.41a133.391,133.391,0,0,1,15.053.769l.246.024a18.533,18.533,0,0,1-2.837,3.023,22.85,22.85,0,0,1-4.748,2.924c-5.768,3.05-8.652,4.577-11.509,6.758-5.242,4-5.915,7.679-6.211,8.7-.551,1.9-.747,4.443,0,4.748.477.2,1.024-1.132,2.377-3.665,2.645-4.95,5.251-5.829,6.6-6.884,6.436-5.042,13.02-4.473,18.527-9.235,3.309-2.861,3.465-3.094,4.649-4.805.171-.246.321-.475.457-.69l-.149-.02c4.21.562,8.391,1.213,12.443,1.861,0,0,.105,1.136.154,1.819.316,4.673.855,5.844-.288,8.145-1.044,2.1-4.805,5.71-4.4,6.512.481.945,6.143-3.223,6.967-5.051,1.321-2.931.943-3.83.87-7.657-.022-1.246-.1-2.331-.2-3.269q3.124.5,6.106.971l-.013.092a15.223,15.223,0,0,0,1.43,3.68,18.234,18.234,0,0,0,6.574,6.211c4.067,2.281,5.812.268,10.412,2.349,4.28,1.934,6.6,6.269,7.123,5.871.332-.253-.365-2.193-.365-2.193s-1.323-2.461-2.191-3.678c-1.571-2.2-3.693-3.182-5.847-4.177-3.384-1.564-4.192-.9-7.123-2.558a17.164,17.164,0,0,1-4.019-3.1,7.035,7.035,0,0,1-1.266-1.789Z" transform="translate(2.048 107.573)" fill="#fff"/>
  <path id="Path_2217" data-name="Path 2217" d="M34.212,92.773c-.347-2.221-.683-3.219-.127-3.494,1.057-.525,3.682,1.854,5.409,4.337q-2.581-.405-5.273-.842Z" transform="translate(40.45 106.794)" fill="#fff"/>
  <path id="Path_2218" data-name="Path 2218" d="M38.67,94.071c-3.643-.582-7.347-1.151-11.126-1.67a8.128,8.128,0,0,1,1.907-2.826,4.877,4.877,0,0,1,4.111-1.828A4.051,4.051,0,0,1,37.4,89.3a10.614,10.614,0,0,1,1.272,4.77" transform="translate(32.975 105.012)" fill="#fff"/>
  <path id="Path_2219" data-name="Path 2219" d="M43.951,82.969c.466,2.533-.171,5.185-.811,7.855a27.191,27.191,0,0,1-2.375,6.394c-.244.457-.549,1.022-.934,1.652a138.4,138.4,0,0,0-16.512-.923c-3.511.044-7.752.347-12.012.756h0a11.467,11.467,0,0,1,2.555-2.872c4.436-3.546,10.094-3.45,14.934-8.334,2.347-2.366,3.153-4.06,5.032-5.935C37.227,82.18,40.631,82.668,43.951,82.969Z" transform="translate(13.534 97.645)" fill="#fff"/>
  <path id="Path_2220" data-name="Path 2220" d="M20.653,106.2c-9.659,1.008-18.942,2.391-18.942,2.391V75.524a247,247,0,0,0,23.525,8.349c-3.647,1.758-8.835,2.975-8.789,3.586.057.756,7.51.969,10-.075a16.433,16.433,0,0,0,3.72-2.092c3.107.855,6.33,1.665,9.6,2.384h0c-.22.283-.442.593-.666.936-4.658,7.158-12.331,5.194-16.989,13a12.617,12.617,0,0,0-1.457,4.581" transform="translate(2.048 90.415)" fill="#fff"/>
  <path id="Path_2221" data-name="Path 2221" d="M48.372,106.265a10.712,10.712,0,0,0-1.586-3.764,18.343,18.343,0,0,0-6-5.686c-2.151-1.5-4.223-1.125-6.965-3.184-3.682-2.764-2.922-3.1-3.1-5.937a14.406,14.406,0,0,1,0-1.571q2.689.049,5.234.044H35.9c1.657.609,3.041,1.074,3.041,1.074,5.449,1.378,6.71.167,9.178,1.261,2.837,1.263,2,1.213,5.974,3.575,8.312,4.933,14.3,3.419,14.249,2.558-.018-.261-5.357-1.158-9.727-3.379-4.526-2.3-3.241-3.612-6.471-5.638l-.024,0c23.422-1.63,33.755-6.328,33.755-6.328v24.78s-7.866,3.57-23.483,3.5a106.922,106.922,0,0,1-14.018-1.312" transform="translate(36.74 94.927)" fill="#fff"/>
  <path id="Path_2222" data-name="Path 2222" d="M30.012,83.016c-2.516-.246-5.075-.6-7.642-1.028l.094.018c1.015-1.041,2.628-2.716,4.5-2.151a5.326,5.326,0,0,1,2.924,2.922" transform="translate(26.781 95.463)" fill="#fff"/>
  <path id="Path_2223" data-name="Path 2223" d="M24.891,86.616a12.458,12.458,0,0,0,1.907-1.78c2.448-3.562,3.891-8.7,2.375-9.863-.74-.567-6.556.182-9.984,3.28-1.753,1.586-1.938,3.808-3.86,6.08l0,.007c3.192.85,6.236,1.586,9.564,2.276" transform="translate(18.349 89.547)" fill="#fff"/>
  <path id="Path_2224" data-name="Path 2224" d="M47.553,101.858c26.3-1.331,37.831-6.572,37.831-6.572V65.424s-6.576-1.219-23.138-1.219c-8.189,0-19.717,2.116-31.147,4.342.778,4.065,1.314,6.708,1.314,6.708,1.189,3.926,4.454,1.861,8.56,5.387C46.026,84.981,48.045,87.02,51.7,88.9c3.788,1.951,5.9.187,11.931,2.065,5.115,1.593,7.176,3.344,6.686,4.381-.261.551-4.612-1.428-9.591-1.189-9.885.479-12.124-.668-21.519-8.037-1.562-1.224-4.939-1.821-6.455-.635-1.121.877-1.624,2.746-1.619,4.836a8.476,8.476,0,0,0,1.525,5.231c2.955,5.06,9.791,4.862,14.886,6.3Z" transform="translate(37.23 76.864)" fill="#fff"/>
  <path id="Path_2225" data-name="Path 2225" d="M27.5,95.379c1.918-1.76,3.425-6.185,5.126-7.866,5.82-5.759,18.889-8.492,18.891-9.819,0-1.929,0-4.3-.018-6.972h-.011A133.407,133.407,0,0,1,35.2,72.917c-15.466.732-33.489-8.158-33.489-8.158V86.34A248.415,248.415,0,0,0,27.52,95.361Z" transform="translate(2.05 77.527)" fill="#fff"/>
  <path id="Path_2226" data-name="Path 2226" d="M33.644,82.108c11.531-2.248,23.191-4.4,31.455-4.4,16.562,0,23.138,1.217,23.138,1.217v-27.4H28.714c.031.312.064.617.1.914C29.872,61.514,32.1,73.97,33.644,82.108Z" transform="translate(34.376 61.685)" fill="#fff"/>
  <path id="Path_2227" data-name="Path 2227" d="M51.491,84.89c-.055-9.16-.171-21.282-.156-31.538l.007-1.826H1.712v27.4s18.021,8.89,33.487,8.16A133.811,133.811,0,0,0,51.491,84.89" transform="translate(2.05 61.685)" fill="#fff"/>
  <path id="Path_2228" data-name="Path 2228" d="M34,73.43a179.545,179.545,0,0,1-.479-20.275c.332-9.929,1.1-16.606,1.1-16.622-.879-4.2-6.758-4.2-7.49-1.1a75.256,75.256,0,0,0-1.54,10.221C24.959,51.7,24.37,60.7,24.3,73.43Z" transform="translate(29.091 39.781)" fill="#fff"/>
  <path id="Path_2229" data-name="Path 2229" d="M71.513,54.439c.5-.207-.062-1.556.319-1.918A19.864,19.864,0,0,0,73.2,50.968c.6-.686.171-.4-.046-.593-.149-.13.648-.7-.281-.455-.712.189-1.657.762-1.347,1.672.477,1.4-1.764-.705-2.076-.6-.615.211-1.235.426-1.826.637l-.956.341c-1.685.606-3.241,1.083-3.241,1.055,0-.5.108-2.476.176-2.718a5.213,5.213,0,0,0,.1-2.032c0-1.826-2.83-1.832-2.527-2.83.791-2.619-.169-4.258-.488-4.019a2.512,2.512,0,0,0-.973,1.769c-.053.422,1.986,1.793,1.949,2.309-.046.626-1.758.622-1.786,1.351-.015.389-.026.787-.037,1.2-.02.809-1.29.877-1.294,1.731,0,.514,0,1.263,0,1.782,0,.549.541,1.558.545,2.1,0,.464-.551.967-.545,1.415,0,.25,1.446.714,1.472,1.751.055,2.107-.015,5.4-.015,5.418,0,1.43-1.457,12.726-1.457,12.726l-2.336.25-1.305-.25-.611.121-.609-.729c-.609-.732,0,0-.3-.609a10.491,10.491,0,0,1-.556-1.828l-1.582,1.705-3.045-.365c-3.043-.365.732,1.217-.365.121L46.5,72.66l-1.217.121.609,1.446a9.495,9.495,0,0,0-1.826-.105l.121.729a6.985,6.985,0,0,1,.609,1.1c.123.365-.973.123-1.338.123s-.365.853-.609,1.217.365.609-.123,1.1,0,0-.365.121.973,1.1.973,1.1l-1.947.488-.185,2.555a5.465,5.465,0,0,0-2.861-.729,1.728,1.728,0,0,0-1.34.973l-.121-1.947-.365-1.463a9.541,9.541,0,0,0-1.1-.121,11.77,11.77,0,0,0-2.193,1.217,12.529,12.529,0,0,1-2.558,1.219c-.973.242,0,0-.486,1.217s-1.584-.609-2.072-.488-1.582-.609-1.826-.973.123-1.219.123-1.219l.609-1.461-.976-1.094-1.338,1.461-.976,1.826-.365,1.1s-.732,1.1-1.1,1.1S19.1,81.915,18.5,80.942l-1.1-1.463-1.338-1.094c-.367,0-2.072.729-3.41.486l-1.219-1.338H9.971l-2.8-1.1-.244-.365a3.263,3.263,0,0,0-1.1-.732s-1.34.244-2.07.365.486-.729-1.219-.486-1.7-.488-1.7-.488S0,74.365,0,73.878V73.01c0-.38,1.569-.837.839-1.69s0,0,.729.732c.259.257.609.121,2.193.121s.973-1.582.973-1.582l-1.949-.732,1.584-.973a7.258,7.258,0,0,0,1.461-.609c.609-.367,2.314.609,1.34-.488,0,0,.365-1.828.486-2.193s2.375-.488,2.375-.488h1.705s-.547-.912-.426-1.4,1.217-.244,1.217-.244l1.34-.365.121-1.1a6.485,6.485,0,0,1-.609-2.678c.123-1.1,0,0,.732-.244a1.789,1.789,0,0,0,.973-1.156,16.507,16.507,0,0,1-2.558-2.193c-.365-.609,1.705-.976,1.705-.976l1.705.123a8,8,0,0,1-.609-2.8,1.211,1.211,0,0,1,.973-1.1l3.9.123a5.012,5.012,0,0,0,2.193-.609l1.826.365s1.461-.244,1.826-.853,0,0-.486-.244-.367-1.949-.367-1.949l-.853-1.094s-.853-.488-.973-1.1,1.217-1.219,1.217-1.219L23.123,43.4l-.365-1.426.853-1.461-.367-1.584-2.678.123a5.239,5.239,0,0,0-.729,1.1l-1.34-.609a1.512,1.512,0,0,1,0,1.094c-.242.488-1.1-.973-1.1-.973v1.1l-3.41.853a2.2,2.2,0,0,1-1.338-.244,6.122,6.122,0,0,0-.945-1.674c-.365-.244-.4-1.248-.4-1.248l.152-1.8.822-1,.732-1.949,2.162.488.7-2.406s2.619.822,2.131-.639a.815.815,0,0,0-.853-.609c-.437,0-1.663,1.167-3.2,1.492-1.028.218-2.191.824-2.434.578-.609-.609-.213-.4-1.31-.029s-.121-.7-1.1-.092-1.4-2.344-1.4-2.344l.853-1.186c0-.488,1.705-.732,1.705-.732l1.582-.365.123-.973c.121-.976.547.121.791-.244s1.461.121,1.461.121l1.217-2.07,1.949-.365,1.1-.123v-2.07a3.9,3.9,0,0,0,2.314-.853s.121-.732.244-1.217.973-.732,1.461-.853,1.826.609,2.922,0l1.492-.213,3.2.609a2.278,2.278,0,0,0,2.243.782c1.206-.437-.264-.874,1.439-1.239S31.16,18.1,31.16,18.1l-.365.121a4.42,4.42,0,0,1-3.983.459l-.888-1.553-1.828.121c-1.826.121-.729-1.34-.729-1.34a1.937,1.937,0,0,0-1.1.611,14.394,14.394,0,0,1-1.217,1.338c-.411.45,0,0-.853.123a.958.958,0,0,1-1.1-.488,5.026,5.026,0,0,0,.244-1.1c0-.365,0,0-1.705.488s-.609-.609-1.1-1.1,1.1-1.217,1.1-1.217l2.07-.367a2.176,2.176,0,0,0-.486-.973c-.367-.365,2.191-1.582,2.191-1.582l1.705-.123.732-1.34.486-.973c.488-.973.609.123,1.949.123l.853-.732.853-.121s2.314.609,2.678.609a2.923,2.923,0,0,0,1.949-.609s1.461.729,2.8,1.582l1.826-.244-1.7-.973c-.609.426.36-1.257-1.461-.244L32.744,6.172,32.5,4.709l-.976-.242a7.508,7.508,0,0,1-1.338-1.1,3.619,3.619,0,0,1-.488-.976c-.121-.365.244-.609.609-.973S31.525,1.3,31.525,1.3h3.166a3.355,3.355,0,0,1,1.1.609l2.558.365v-1.1L40.05.69,42.972,0l1.34,1.3V2.639l1.314-.25,1.244-.235H49.3c1.217,0,.976,1.217.976,1.217s.486,1.705.85,1.547c0,0,4.142-.086,4.75,0a15.475,15.475,0,0,0,2.07,0,1.869,1.869,0,0,1,1.217,1.375c.11.49,2.072.973,2.072.973s2.07.367,2.465.367,0-1.1,0-1.1a4.589,4.589,0,0,1,3.441-.365l1.338-.244,2.131.729,1.705.123A7.29,7.29,0,0,0,73.66,8c.852.609,0,0,.121-.365S75,8,75,8a13.339,13.339,0,0,0,1.584.121c.732,0,.973-1.217.973-1.217a6.643,6.643,0,0,0,2.314,0l.367-1.1s1.338.244,1.947.367.732.729.732,1.217,1.217-.244,1.217-.244l-.121-1.1.488-.868c.486-.868,1.947.624,2.8,1.476a13.529,13.529,0,0,0,3.045.123l-.732-1.1A2,2,0,0,1,91.2,5.2a10.191,10.191,0,0,0,2.07,0h6.088l-.244.732c-.244.729-3.043.729-3.043,1.094s1.338.367,1.826.488,2.309.732,2.309.732L98.624,9.459c0,.365,1.578.973,1.578.973h2.927a3.073,3.073,0,0,0,.732,1.584s1.461.488,2.434.853-.244,1.217-.244,1.217l1.463.732.365,1.582s1.217-.365,1.562,0,1.481,0,1.481,0-1.826.365-1.338,1.949h1.338l3.166,3.043a6.658,6.658,0,0,1-.973.488c-.365.123,2.314,3.654,2.314,3.654l-3.775-.123h-1.826l-1.949.853-1.949-1.338a11.322,11.322,0,0,1-.121,1.518c-.123.787,1.094,0,1.094,0l1.34.8a4.756,4.756,0,0,1-.121,1.1c-.123.365,2.678,0,2.678,0v-1.34c0-.609,2.922-.853,4.019,0l-1.584,1.1-.242.626c-.244.626.729.347,2.07.1s0,0,1.338.123.488.853.488,1.582-.609,0-1.1,0,0,1.217,0,1.217h2.193l2.193.488.973,1.1a5.088,5.088,0,0,1,0,1.461l2.07,1.461a4.156,4.156,0,0,0,0,1.34,21.2,21.2,0,0,1,2.314,1.826,1.914,1.914,0,0,1,.123,1.1l.729,1.582L127,43.678c-.365.121.976,1.705.976,1.705l1.217.488s.488.853.121,1.329.244,1.593.244,1.593l1.545,1.949a10.724,10.724,0,0,0-1.665,1.094c-.732.609.973,1.34,1.461,2.314s0,0-.365,1.1,0,0-.367.365-1.338-.121-1.338-.121a1.255,1.255,0,0,0-.732-.853c-.358-.143-.853.973-.853.973L126.511,55l-1.949.976-1.019-2.716-.991-1.729-3.348-.062.732-1.1.486-1.826-1.52.729c-.367-.121-1.219-.547-1.219-.547a21.692,21.692,0,0,1,.426,2.131c0,.365-1.094-.244-.973,1.34l2.07-.732,3.348.062,1.145,2.136s-.6,1.821-1.083,3.647-1.461.488-1.461.488v1.705s0,.732-1.1.973-.973,2.072-.973,2.072l.244,1.947H116.4V62.553l-.242.791-.976.121c-.973.123.488,1.219,0,2.558a6.182,6.182,0,0,1-.973,1.1c-.365.244-2.437-.791-2.437-.791,0,.486-1.582,1.461-1.582,1.461v.729a9.78,9.78,0,0,1,1.582.609c.367.244.367.611.488,1.1s-.244.852-.488,1.652a.857.857,0,0,1-1.094.541l-1.828.593-1.079-1.081a5.231,5.231,0,0,0-1.6,0c-1.1.123.729.976.729.976l.712,1.461c.71,1.461-1.2.609-1.2.609s-1.34-.123-2.193-.123,0,0-.853.367a8.317,8.317,0,0,0-1.217.609s-.609.486-.973.729-1.1.123-1.828.367-1.1.242-1.826-.611l-.853-.729h-.732a3.838,3.838,0,0,0-1.094.121s.609.852,1.094,1.584a1.3,1.3,0,0,1-.729,1.1c-.732.365,0,0-.732,1.582s0,0-.365.609,0,0,.609,1.219-2.193-.244-3.654-.244,1.705.729,1.705.729-2.678,0-3.166.732l-1.217.244,1.217.853-2.191.486s1.094.609.853,1.34-1.1-.123-1.1-.123a1.561,1.561,0,0,0-1.584.611c-.609.853.488,1.11-1.094,1.094a2.612,2.612,0,0,0-1.584-.108,4.2,4.2,0,0,1-1.826,0l-1.828-2.083s-.973-.609-2.191-1.217c-.488-.244-.367-1.828-.367-1.828l-.365-1.338.853-1.463,2.07-1.013-1.1-.934s-1.461-.123-1.826-.123a9.378,9.378,0,0,0-1.1.123h-.4c-.406,0-.69-.976-.325-1.949,0,0,.729-1.461,0-1.826s-.852.486-3.531,3.408-1.34,0-1.34,0l-1.461.611a3.977,3.977,0,0,1-1.584.365c-.853,0,0,0-1.433.609a8.521,8.521,0,0,1-1.734-.365l-.374-1.705s-4.678-1.31-4.5-1.764c0,0,1.323-11.017,1.45-12.667.013-.165.842.011,1.463-1.918.169-.525,1.9.253.958-2.419-.2-.565.5-1.417-.11-3.4-.261-.855.874-.7,1.114-1.485.031-.1,3.551-1.164,4.478-1.494.25-.09-.824,1.266-.185,1.4.391.083-.85,1.041-1.05,1.325-.547.776,0,2.648.248,1.384a6.57,6.57,0,0,1,2.035-.38c.554.029.5-.778,1.279-1.05.457-.158.958.976,1.461.639a13.2,13.2,0,0,1,1.964,1.186L72.017,57.5l-.868-.275-.457.639s-1.279-.138-1,.09.868.914.683.914-1.69.046-1.69.046l-1.14.365-.457.868-1.05.822-.229,1.507-.255,1.461v1.325l-.384,1.325-.868.365s-1.05,1.643-.593,1.736.822.958.822.958l-.09.686-.457.958.639.914.044.411.888.092,1.259.3s1.05.3,1.1,0,.868-.67.868-.67.547.868.593.411a4.042,4.042,0,0,0,0-.822s.868.229.914-.09-1-.868-.138-1.006.96.138.868-.136-.912-.593-.593-.868.778-.457.639-.547-2.375-.182-1.05-.5a11.3,11.3,0,0,0,2.694-.686c.138-.229-.044-.729.185-.776a3.348,3.348,0,0,1,.683,0c.321,0,.868.5,1.189.136a1.47,1.47,0,0,0,.365-.639s.958-1.094,1-1.233.457-.593.092-.686-1.143-.729-1.6-.226-.683.455-.822.639-.639.593-.639.226-.822-.639-.729-.272.272,1.05-.092,1-1.14-.046-1.14-.046l-.367-.686s-.457-.455-.729-.455-.5.229-.593-.046a2.541,2.541,0,0,1,.044-.914s-.958-.365-.593-.547l.365-.182s1.918-.138,1.828-.367-.868-.411-.411-.593a11.257,11.257,0,0,1,1.872-.319s-.853-.321-.9-.778a3.95,3.95,0,0,1,.259-1.279l.686-.182a1.493,1.493,0,0,1,.547,0c.411.046.319-1.643.319-1.643s.824.411.686-.411-.229-.732-.136-.822,2.511-.275,2.511-.275L78,57.087l.549-.09a9.689,9.689,0,0,0-.229-1.371c-.092-.136-.914-.958-.686-.958a11.433,11.433,0,0,0,1.553-.411,2.433,2.433,0,0,1,1.05.136c.136.046,1.05.593,1.05.593s-.092.549.046.549.912.593,1.461.365.866-.639,1-.275a1.513,1.513,0,0,1-.182.96c-.046.411,0,.958.683.958s.824.046.96.138,1.186.729,1.369.547.686-.457.639-.686,1.553-.09-.272-.868-2.01-.411-2.375-.912-1.143-1.461-1-1.736-.321-.868-.182-.914.822-.729.593-.868-1-.593-1-.593l-.367-.868-.912.275-3.061-.776s-.319,1.094-.914.776-1.369-.822-1.369-.822-.639.136-.593.275-.639.729-.138.912a.6.6,0,0,1,.457.593l-.046.914-.229.96s-1.415-.411-1.277-.138.637,1.1.637,1.1l-.822.092-.683-.321-.046,1.415-.868-.822Z" fill="#fff"/>
  <path id="Path_2230" data-name="Path 2230" d="M68.819,94.964c-.611,0-.918.365-1.164,1.523h-.49L65.754,84.242h.49c2.575,7.552,6.686,11.939,13.249,11.939,6.317,0,10.61-3.656,10.61-9.32,0-4.082-2.454-7.372-9.017-10.114l-3.617-1.525c-7.178-3.043-9.692-7.248-9.692-11.7a11.776,11.776,0,0,1,12.144-12c4.968,0,8.094,2.131,9.323,2.131.615,0,.859-.367,1.1-1.525h.492L92,63.162h-.428c-2.393-6.824-6.563-10.724-11.654-10.724-4.722,0-8.71,2.863-8.71,8.288,0,3.9,1.718,7,8.71,9.929l3.619,1.525c7.235,3.043,10,7.189,10,12.062,0,7.372-5.95,12.853-14.044,12.853-5.642,0-9.446-2.131-10.674-2.131" transform="translate(78.719 61.685)" fill="#fff"/>
  <path id="Path_2231" data-name="Path 2231" d="M81.8,74.859c0-13.952,10.059-23.334,22.572-23.334,12.449,0,22.02,8.894,22.02,22.235,0,13.952-10.182,23.336-22.879,23.336C91.31,97.1,81.8,88.2,81.8,74.859m22.815,21.2c9.263,0,16.378-8.165,16.378-20.592,0-12.733-7.3-22.908-17.665-22.908-9.2,0-16.132,8.224-16.132,20.594,0,12.73,7.237,22.905,17.419,22.905" transform="translate(97.932 61.684)" fill="#fff"/>
  <path id="Path_2232" data-name="Path 2232" d="M109.966,92.621V55.337c0-2.377-.859-2.863-5.275-3.109V51.8h15.334v.426c-4.416.246-5.275.732-5.275,3.109V92.621c0,2.377.859,2.865,5.275,3.109v.426H104.691V95.73c4.416-.244,5.275-.732,5.275-3.109" transform="translate(125.333 62.016)" fill="#fff"/>
  <path id="Path_2233" data-name="Path 2233" d="M119.495,92.621V55.337c0-2.377-.859-2.863-5.091-3.109V51.8H129.31v.426c-4.232.246-5.091.732-5.091,3.109V92.683c0,1.828.918,2.5,2.76,2.5h6.745c6.134,0,9.079-1.949,13.185-9.808h.431l-3.25,10.784H114.4V95.73c4.232-.244,5.091-.793,5.091-3.109" transform="translate(136.961 62.016)" fill="#fff"/>
  <path id="Path_2234" data-name="Path 2234" d="M140.971,94.964c-.611,0-.918.365-1.164,1.523h-.49l-1.411-12.245h.49c2.575,7.552,6.686,11.939,13.249,11.939,6.317,0,10.61-3.656,10.61-9.32,0-4.082-2.454-7.372-9.017-10.114l-3.617-1.525c-7.178-3.043-9.692-7.248-9.692-11.7a11.776,11.776,0,0,1,12.144-12c4.968,0,8.094,2.131,9.323,2.131.615,0,.859-.367,1.1-1.525h.492l1.164,11.03h-.428c-2.393-6.824-6.563-10.724-11.654-10.724-4.722,0-8.71,2.863-8.71,8.288,0,3.9,1.718,7,8.71,9.929l3.619,1.525c7.235,3.043,10,7.189,10,12.062,0,7.372-5.95,12.853-14.044,12.853-5.642,0-9.446-2.131-10.674-2.131" transform="translate(165.097 61.685)" fill="#fff"/>
  <path id="Path_2235" data-name="Path 2235" d="M153.928,74.98c0-13.829,10.61-23.455,22.875-23.455,8.835,0,12.761,3.289,14.17,3.289.8,0,1.351-.547,1.6-2.681h.492l1.531,13.28h-.428c-3.557-9.5-10.489-12.853-17.36-12.853-9.69,0-17.476,7.921-17.476,20.289,0,13.95,8.279,21.932,18.643,21.932,7.545,0,13.554-4.693,17.114-11.638l.613.246C192.075,91.366,185.025,97.1,175.271,97.1c-11.961,0-21.343-9.019-21.343-22.117" transform="translate(184.278 61.684)" fill="#fff"/>
  <path id="Path_2236" data-name="Path 2236" d="M180.751,92.621V55.337c0-2.377-.859-2.863-5.275-3.109V51.8H190.81v.426c-4.416.246-5.275.732-5.275,3.109V92.621c0,2.377.859,2.865,5.275,3.109v.426H175.476V95.73c4.416-.244,5.275-.732,5.275-3.109" transform="translate(210.074 62.016)" fill="#fff"/>
  <path id="Path_2237" data-name="Path 2237" d="M190.279,92.621V55.337c0-2.377-.859-2.863-5.091-3.109V51.8h30.24l2.021,10.054h-.492c-3-7.312-5.335-9.076-12.205-9.076H195V73.187h8.4c5.519,0,6.807-2.07,7.789-7.431h.428V81.837h-.428c-.982-5.667-2.27-7.675-7.789-7.675H195v18.52c0,1.705.918,2.5,2.76,2.5h8.525c6.134,0,8.953-1.828,13.062-9.685h.431l-3.252,10.661h-31.34V95.73c4.232-.244,5.091-.732,5.091-3.109" transform="translate(221.701 62.016)" fill="#fff"/>
  <path id="Path_2238" data-name="Path 2238" d="M209.175,89.393V58.567c0-4.755-1.411-5.972-6.011-6.339V51.8h10.243L239.6,87.93V58.567c0-4.755-1.472-5.972-7.791-6.339V51.8H246.9v.426c-4.539.367-6.011,1.584-6.011,6.339v38.2h-.428l-29.932-40.7V89.393c0,4.752,1.411,5.97,7.73,6.337v.426h-15.09V95.73c4.6-.367,6.011-1.584,6.011-6.337" transform="translate(243.222 62.016)" fill="#fff"/>
  <path id="Path_2239" data-name="Path 2239" d="M225.27,74.98c0-13.829,10.61-23.455,22.875-23.455,8.835,0,12.761,3.289,14.17,3.289.8,0,1.351-.547,1.6-2.681h.492l1.531,13.28H265.5c-3.557-9.5-10.489-12.853-17.36-12.853-9.69,0-17.476,7.921-17.476,20.289,0,13.95,8.279,21.932,18.643,21.932,7.545,0,13.554-4.693,17.114-11.638l.613.246C263.417,91.366,256.367,97.1,246.613,97.1c-11.961,0-21.343-9.019-21.343-22.117" transform="translate(269.686 61.684)" fill="#fff"/>
  <path id="Path_2240" data-name="Path 2240" d="M251.993,92.621V55.337c0-2.377-.859-2.863-5.091-3.109V51.8h30.237l2.024,10.054h-.49c-3.006-7.312-5.337-9.076-12.208-9.076h-9.749V73.187h8.4c5.519,0,6.807-2.07,7.789-7.431h.428V81.837h-.428c-.982-5.667-2.27-7.675-7.789-7.675h-8.4v18.52c0,1.705.918,2.5,2.76,2.5H268c6.135,0,8.953-1.828,13.062-9.685h.431l-3.252,10.661H246.9V95.73c4.232-.244,5.091-.732,5.091-3.109" transform="translate(295.583 62.016)" fill="#fff"/>
  <path id="Path_2241" data-name="Path 2241" d="M106.6,129.627l-5.787-15.835H81.463l-4.722,13c-1.83,5.005-.762,7.4,6.016,7.844v.523H66.689v-.523c3.731-.448,6.167-2.241,8.453-8.217L90.069,85.78,88.7,82.346a10.537,10.537,0,0,0,5.407-3.065h.457a60.014,60.014,0,0,0,2.819,8.668l14.545,39.213c2.287,5.976,3.2,7.022,8.149,7.47v.523H101.112v-.523c6.321-.224,6.778-1.419,5.484-5.005m-6.321-17.18-9.14-25.1L82,112.447Z" transform="translate(79.838 94.913)" fill="#fff"/>
  <path id="Path_2242" data-name="Path 2242" d="M97.1,115.068V84.295c0-2.913-1.066-3.511-6.321-3.81v-.523h18.507v.523c-5.256.3-6.319.9-6.319,3.81V114.62c0,12.849,6.4,18.228,16.068,18.228,9.369,0,16.452-4.706,16.452-18.078V88.254c0-5.825-1.828-7.321-8.912-7.769v-.523h17.975v.523c-5.636.448-7.464,1.945-7.464,7.769V114.77c0,14.418-7.921,20.317-20.258,20.317-12.265,0-19.728-5.974-19.728-20.018" transform="translate(108.68 95.728)" fill="#fff"/>
  <path id="Path_2243" data-name="Path 2243" d="M121.319,132.879c-.762,0-1.145.448-1.448,1.868h-.609l-1.753-15.013h.611c3.2,9.259,8.3,14.64,16.45,14.64,7.846,0,13.176-4.482,13.176-11.427,0-5.007-3.047-9.039-11.2-12.4l-4.493-1.868c-8.912-3.735-12.032-8.89-12.032-14.341,0-8.666,6.7-14.714,15.079-14.714,6.167,0,10.052,2.612,11.577,2.612.76,0,1.066-.448,1.371-1.865h.609l1.448,13.519h-.534c-2.971-8.367-8.149-13.146-14.471-13.146-5.864,0-10.817,3.509-10.817,10.158,0,4.779,2.133,8.591,10.817,12.177l4.493,1.865c8.986,3.735,12.414,8.815,12.414,14.791,0,9.037-7.387,15.758-17.441,15.758-7.007,0-11.729-2.612-13.251-2.612" transform="translate(140.678 95.321)" fill="#fff"/>
  <path id="Path_2244" data-name="Path 2244" d="M156.869,130.251V81.4H151.31c-8.226,0-11.045,1.791-14.928,11.129h-.534l2.59-12.772a46,46,0,0,0,7.389.448h28.025a44.936,44.936,0,0,0,7.312-.448l2.665,12.772h-.609C179.338,83.192,176.6,81.4,168.295,81.4h-5.559v48.85c0,2.913,1.063,3.511,6.319,3.808v.525H150.548v-.525c5.256-.3,6.321-.894,6.321-3.808" transform="translate(162.634 95.484)" fill="#fff"/>
  <path id="Path_2245" data-name="Path 2245" d="M166.509,130.007V84.22c0-2.839-1.068-3.364-6.323-3.737v-.521h17.441c13.939,0,21.251,4.408,21.251,13s-8,12.177-14.09,13.671l11.88,17.479c4.647,6.945,7.618,9.41,11.043,9.709v.523c-1.294.149-3.425.3-4.95.3-4.416,0-7.158-1.121-11.272-7.692l-10.434-16.435c-1.674-2.762-2.514-3.061-4.342-3.061h-4.342v22.556c0,2.916,1.068,3.511,7.235,3.81v.523H160.186v-.523c5.256-.3,6.323-.894,6.323-3.81m10.584-23.677c9.217,0,15.615-4.482,15.615-12.251,0-8.514-5.79-12.922-16.45-12.922h-3.887V106.33Z" transform="translate(191.77 95.728)" fill="#fff"/>
  <path id="Path_2246" data-name="Path 2246" d="M221.934,129.627l-5.787-15.835H196.8l-4.722,13c-1.83,5.005-.762,7.4,6.016,7.844v.523H182.027v-.523c3.731-.448,6.17-2.241,8.453-8.217L205.407,85.78l-1.371-3.434a10.537,10.537,0,0,0,5.407-3.065h.457a60.012,60.012,0,0,0,2.819,8.668l14.545,39.213c2.287,5.976,3.2,7.022,8.149,7.47v.523H216.45v-.523c6.321-.224,6.778-1.419,5.484-5.005m-6.321-17.18-9.14-25.1-9.138,25.1Z" transform="translate(217.917 94.913)" fill="#fff"/>
  <path id="Path_2247" data-name="Path 2247" d="M214.556,130.007V84.293c0-2.913-1.068-3.509-6.323-3.81v-.521h18.509v.521c-5.256.3-6.321.9-6.321,3.81v45.789c0,2.241,1.14,3.063,3.428,3.063h8.378c7.615,0,11.271-2.391,16.376-12.027h.532l-4.038,13.223H208.233v-.525c5.256-.3,6.323-.969,6.323-3.808" transform="translate(249.29 95.728)" fill="#fff"/>
  <path id="Path_2248" data-name="Path 2248" d="M235.62,130.007V84.293c0-2.913-1.068-3.509-6.55-3.81v-.521h19.041v.521c-5.486.3-6.552.9-6.552,3.81v45.714c0,2.913,1.066,3.511,6.552,3.808v.525H229.07v-.525c5.482-.3,6.55-.894,6.55-3.808" transform="translate(274.236 95.728)" fill="#fff"/>
  <path id="Path_2249" data-name="Path 2249" d="M279.584,129.627,273.8,113.792H254.451l-4.722,13c-1.83,5.005-.762,7.4,6.016,7.844v.523H239.677v-.523c3.731-.448,6.17-2.241,8.453-8.217L263.057,85.78l-1.371-3.434a10.537,10.537,0,0,0,5.407-3.065h.457a60.014,60.014,0,0,0,2.819,8.668l14.545,39.213c2.287,5.976,3.2,7.022,8.149,7.47v.523H274.1v-.523c6.321-.224,6.778-1.419,5.484-5.005m-6.321-17.18-9.14-25.1-9.138,25.1Z" transform="translate(286.934 94.913)" fill="#fff"/>
</svg>
